<svg width="240" height="240" viewBox="0 0 240 240" fill="none" xmlns="http://www.w3.org/2000/svg">
<circle cx="120" cy="120" r="120" fill="black"/>
<path d="M42 139.645V81.1994H57.9664V91.0131H58.2944C60.7003 84.3616 66.8244 80 74.6982 80C82.9001 80 88.8601 84.3616 90.8286 92.049H91.1567C93.7813 84.6888 100.78 80 109.365 80C120.848 80 128.557 87.9055 128.557 99.6819V139.645H112.591V103.662C112.591 96.9013 109.201 93.1939 103.022 93.1939C96.9527 93.1939 92.9611 97.6101 92.9611 104.098V139.645H77.5962V103.171C77.5962 96.9013 74.0421 93.1939 68.1367 93.1939C62.0673 93.1939 57.9664 97.7736 57.9664 104.371V139.645H42Z" fill="white"/>
<path d="M133.478 159V145.097H198V159H133.478Z" fill="white"/>
</svg>
