<svg width="164" height="24" viewBox="0 0 164 24" fill="none" xmlns="http://www.w3.org/2000/svg">
<path fill-rule="evenodd" clip-rule="evenodd" d="M41.8106 0.359216C41.7151 1.04958 41.7738 1.69207 41.9441 2.3082L41.9144 2.42012L41.9819 2.43814C42.2075 3.18204 42.5932 3.88912 43.0621 4.59821L42.311 4.45041L42.2171 4.93112L43.4598 5.17586C43.791 5.64041 44.1485 6.11035 44.5115 6.59598C45.6371 8.13199 46.8248 9.82428 47.4501 12.0403H47.3688V12.5301H47.5768C47.7785 13.3861 47.8958 14.3186 47.8958 15.3469C47.8958 15.7476 47.8765 16.1371 47.8385 16.515L47.6368 16.5399L47.6962 17.026L47.7762 17.0161C47.5579 18.4805 47.0445 19.7548 46.2646 20.7996L46.246 20.8041L46.2497 20.8197C45.9855 21.1711 45.691 21.4964 45.3673 21.794L45.0216 21.8871L45.0665 22.0555C43.5458 23.3069 41.4519 24 38.8818 24C38.7381 24 38.5956 23.9975 38.4544 23.9933L38.3697 23.676L37.4423 23.9254C36.7217 23.8486 36.04 23.7127 35.4028 23.5199L35.3742 23.3991L35.1728 23.4471C33.3827 22.8566 31.9631 21.8027 31.0501 20.33L32.6511 20.0885L32.5785 19.6041L30.7906 19.8739C30.2136 18.7653 29.9003 17.4468 29.9003 15.9346C29.9003 14.8898 29.9979 13.7795 30.5511 12.1795H31.3526V12.2588L30.7715 12.2599L30.7723 12.7497L33.8449 12.7444L33.8444 12.5301H34.179V12.1795H36.8642C36.6743 12.8243 36.5569 13.4166 36.4848 13.9503L34.3802 14.0281L34.3981 14.5175L36.429 14.4424C36.3874 14.8933 36.3761 15.2942 36.3761 15.6408C36.3761 15.6519 36.3763 15.663 36.3764 15.6741L34.0668 15.8495L34.1037 16.3379L36.3959 16.1637C36.4245 16.5274 36.4843 16.8642 36.5764 17.1687L34.5176 17.3956L34.571 17.8825L36.7582 17.6413C37.1481 18.4541 37.8441 18.9388 38.8818 18.9388C39.0973 18.9388 39.2969 18.9209 39.4815 18.8866L39.5066 19.0536L42.4448 18.61L42.3721 18.1256L40.5166 18.4056C40.7738 18.1808 40.9701 17.8901 41.1129 17.5424L41.1188 17.5899L41.1485 17.8331L43.9547 17.4871L43.8952 17.001L41.1898 17.3342C41.21 17.2732 41.2289 17.2107 41.2464 17.1467L42.1885 17.043L42.1351 16.5561L41.3511 16.6424C41.3916 16.3742 41.4133 16.0868 41.4184 15.7825L41.7998 15.7537L41.7629 15.2653L41.4121 15.2919C41.3959 14.9346 41.3552 14.5924 41.2931 14.2631L42.0435 14.2355L42.0256 13.746L41.1839 13.7769C40.7545 12.129 39.7961 10.7992 38.7841 9.46939C38.7111 9.3747 38.6378 9.2802 38.5644 9.18559L38.6894 9.19611L38.7298 8.70807L38.1581 8.66056C37.6196 7.96202 37.0915 7.25133 36.6408 6.48358L39.1953 6.84407L39.2634 6.35906L39.1558 6.34375L39.1577 6.3302L36.4987 5.96269L36.4687 6.18048C36.0413 5.4008 35.6993 4.55886 35.509 3.61017L35.9186 3.69085L36.0127 3.21014L35.4219 3.09375C35.3217 2.357 35.3129 1.55661 35.4219 0.674107L35.5624 0.711894L35.6566 0.359216H38.4771L40.8644 1.03667L40.9972 0.56537L40.2708 0.359216H41.8106ZM37.1861 22.9665L37.2991 23.4431L40.0172 22.7943L39.9042 22.3178L37.1861 22.9665ZM42.1708 22.6539L42.2971 23.1269L43.2475 22.8713L43.1212 22.3983L42.1708 22.6539ZM43.5281 21.4528L43.6411 21.9292L44.5471 21.713L44.4341 21.2366L43.5281 21.4528ZM33.1416 21.4461L33.2322 21.9273L36.1199 21.3804L36.0294 20.8991L33.1416 21.4461ZM39.8799 20.1698L39.9704 20.651L40.933 20.4688L40.8425 19.9874L39.8799 20.1698ZM42.7678 19.6228L42.8584 20.1041L45.7461 19.5571L45.6556 19.0757L42.7678 19.6228ZM36.4959 19.0128L36.5685 19.4971L37.5479 19.3493L37.4753 18.865L36.4959 19.0128ZM31.7349 18.4997L31.7945 18.9858L34.6007 18.64L34.5411 18.1539L31.7349 18.4997ZM31.6612 17.7105L31.7144 18.1972L32.6667 18.0923L32.6133 17.6054L31.6612 17.7105ZM46.2895 17.5343L46.3622 18.0187L47.3414 17.8707L47.2688 17.3863L46.2895 17.5343ZM44.0394 16.3463L44.0928 16.8331L46.9493 16.5183L46.896 16.0314L44.0394 16.3463ZM31.1808 16.0686L31.2177 16.5569L32.1796 16.4839L32.1429 15.9955L31.1808 16.0686ZM43.6868 15.1193L43.7237 15.6076L46.6097 15.3886L46.5729 14.9L43.6868 15.1193ZM31.5131 14.1338L31.531 14.6232L32.4868 14.588L32.4688 14.0985L31.5131 14.1338ZM43.9369 13.6755L43.9549 14.165L46.822 14.0592L46.8041 13.5697L43.9369 13.6755ZM40.7738 12.0403V12.5301H41.0137L41.0141 12.7323L44.0866 12.727L44.0858 12.2372L43.6002 12.238V12.0403H40.7738ZM40.7128 11.0695L43.5432 11.1864L43.5632 10.6969L40.7328 10.58L40.7128 11.0695ZM40.7233 9.36496L43.7741 9.61799L43.8143 9.12994L40.7635 8.87675L40.7233 9.36496ZM42.6365 7.30548L42.8204 7.33084L42.817 7.35507L43.7224 7.48278L43.7904 6.99777L43.5858 6.96875L43.5894 6.94276L42.7031 6.82031L42.6365 7.30548ZM39.5177 4.39955L40.4174 4.57669L40.5115 4.09614L39.6117 3.91885L39.5177 4.39955ZM39.192 1.68798L40.0995 1.93208L40.2258 1.45902L39.3185 1.21492L39.192 1.68798Z" fill="#09090B"/>
<path fill-rule="evenodd" clip-rule="evenodd" d="M131.152 0.537946L131.265 1.01435L133.984 0.365593L133.927 0.127232L133.906 0.0398597C137.964 0.169191 140.821 2.10521 141.724 4.94436L141.637 4.9552L141.696 5.44133L141.855 5.42156C141.97 5.91046 142.029 6.42299 142.029 6.95504V7.65338L141.264 7.71158L141.301 8.19994L142.029 8.14461V10.0572L141.1 10.0917L141.117 10.5812L142.029 10.5475V14.7612L141.689 14.7473L141.669 15.2366L142.029 15.2513V15.6081C142.029 16.187 141.989 16.7416 141.912 17.2701L141.35 17.2235L141.31 17.7117L141.83 17.7548C141.579 19.0316 141.092 20.1425 140.382 21.0592L140.442 20.6317L140.157 20.5914L140.198 20.2946L139.25 20.1637L139.217 20.4064L139.209 20.4577L137.4 20.2026L137.332 20.6877L140.341 21.1119C138.882 22.9575 136.504 24 133.307 24C130.216 24 127.813 23.0721 126.234 21.4759L127.093 21.6452L127.187 21.1645L125.7 20.8717C125.235 20.2805 124.865 19.617 124.595 18.8909L125.165 18.9713L125.199 18.7288L125.201 18.7164L125.915 18.8152L125.982 18.33L124.349 18.1043C124.201 17.5285 124.11 16.9196 124.078 16.2817L125.398 16.3913L125.438 15.9031L124.065 15.7892C124.065 15.7833 124.065 15.7773 124.065 15.7714C124.065 14.5574 124.213 13.4761 124.49 12.5301H124.673V12.0403H124.649C125.049 10.9252 125.643 10.0202 126.397 9.33115L127.882 9.21859L127.845 8.73023L127.091 8.78747C128.164 8.07093 129.479 7.70615 130.964 7.70615C132.535 7.70616 133.701 8.05798 134.584 8.61304L134.591 8.70934L134.717 8.69978C135.147 8.98931 135.508 9.32808 135.813 9.69802H135.943C135.873 9.30459 135.821 8.95342 135.785 8.61862L137.467 8.49091L137.43 8.00255L135.742 8.13058C135.724 7.86106 135.715 7.59388 135.715 7.31425V6.73597L136.484 6.65131L136.431 6.16438L135.698 6.24506C135.593 5.42795 135.033 4.92911 134.267 4.74761L134.981 4.63983L134.909 4.15545L132.128 4.57541L132.188 4.97832C131.723 5.24412 131.453 5.67842 131.453 6.26945V6.53061H130.52L130.495 6.32828L129.567 6.44276L129.578 6.53061H125.009C124.996 6.36106 124.989 6.24357 124.984 6.14908L125.711 6.03938L125.638 5.55517L124.978 5.65466C124.988 5.25674 125.047 4.87736 125.149 4.51738L127.972 3.98278L127.882 3.50143L125.338 3.98342C126.394 1.51121 129.631 0.0865058 133.262 0.0341199L131.152 0.537946ZM133.709 22.948L136.545 23.5064L136.639 23.0258L133.803 22.4675L133.709 22.948ZM130.874 22.3897L131.819 22.5759L131.913 22.0952L130.968 21.9091L130.874 22.3897ZM132.549 19.7321L134.33 19.9782L134.325 20.0161L134.291 20.2586L135.304 20.4016L135.338 20.1591L135.344 20.1183L135.392 20.125L135.459 19.6398L132.616 19.2468L132.549 19.7321ZM127.193 19.2573L130.235 19.6865L130.269 19.4439L130.272 19.4173L130.654 19.4702L130.721 18.9849L129.773 18.854L129.74 19.0966L129.736 19.1213L127.261 18.7723L127.193 19.2573ZM133.21 12.6693C131.615 12.6693 130.476 13.8122 130.476 15.8367C130.476 17.502 131.355 19.0041 133.307 19.0041C135.195 19.0041 136.236 17.7306 136.236 16.1306V15.5756C136.236 15.3974 136.226 15.2065 136.2 15.0108L137.678 15.0719L137.698 14.5824L136.1 14.5164C135.833 13.5721 135.09 12.6693 133.21 12.6693ZM138.502 17.4786L139.438 17.5563L139.478 17.0682L138.542 16.9906L138.502 17.4786ZM129.142 16.702L130.078 16.7797L130.118 16.2915L129.182 16.2138L129.142 16.702ZM124.706 14.5365L127.7 14.6601L127.72 14.1706L124.726 14.047L124.706 14.5365ZM124.779 12.1001L124.78 12.5899L127.602 12.5851L127.601 12.0953L124.779 12.1001ZM131.851 12.0403V12.088L131.363 12.089L131.364 12.5788L132.304 12.5772V12.5301H134.185L134.185 12.574L137.006 12.5692L137.005 12.0794L134.926 12.0829V12.0403H131.851ZM140.767 12.073L140.768 12.5628L141.709 12.5612L141.708 12.0714L140.767 12.073ZM128.774 12.0403V12.5301H129.8V12.0403H128.774ZM139.028 12.0403V12.5301H140.053V12.0403H139.028ZM128.017 10.5741L128.035 11.0636L129.041 11.0266L129.023 10.5371L128.017 10.5741ZM131.036 10.4629L131.054 10.9523L134.073 10.8409L134.055 10.3516L131.036 10.4629ZM138.08 10.203L138.098 10.6924L139.105 10.6553L139.087 10.1658L138.08 10.203ZM131.679 8.43909L131.716 8.92762L132.674 8.85475L132.638 8.36639L131.679 8.43909ZM140.258 5.74267L140.311 6.22959L141.268 6.12404L141.214 5.63728L140.258 5.74267ZM138.851 5.29847L138.911 5.7846L139.839 5.67028L139.78 5.18399L138.851 5.29847ZM129.346 4.99522L129.419 5.47959L130.346 5.3396L130.274 4.85523L129.346 4.99522ZM138.617 3.59566L138.69 4.08004L139.617 3.94005L139.544 3.45568L138.617 3.59566ZM131.776 2.76403L131.866 3.24522L132.84 3.06091L132.749 2.57956L131.776 2.76403ZM134.696 2.21078L134.787 2.69212L137.707 2.13903L137.616 1.65769L134.696 2.21078ZM128.434 1.1867L128.547 1.66327L129.453 1.44691L129.34 0.970504L128.434 1.1867Z" fill="#09090B"/>
<path fill-rule="evenodd" clip-rule="evenodd" d="M113.594 0.032685C114.229 0.032685 114.823 0.084749 115.377 0.185906L114.057 0.66183L114.222 1.12277L116.244 0.393973C117.338 0.724122 118.237 1.27334 118.929 2.00989L117.566 2.37659L117.509 2.17969L117.441 1.94436L114.731 2.72816L114.866 3.19882L116.541 2.71429L116.652 3.12946L119.28 2.42251C119.477 2.67879 119.653 2.95362 119.806 3.24601L119.372 3.34965L119.485 3.82621L120.02 3.69834C120.347 4.47097 120.537 5.34956 120.58 6.31856L120.076 6.39477L120.148 6.87915L120.591 6.81234V7.54895L120.282 7.58689L120.342 8.07302L120.591 8.04225V15.5008L119.822 15.437L119.781 15.9252L120.591 15.9922V16.0654C120.591 16.589 120.554 17.0909 120.482 17.5698L120.296 17.5442L120.229 18.0293L120.396 18.0523C120.021 19.8641 119.108 21.3166 117.711 22.3326L117.455 22.2602L117.369 22.5662C116.044 23.4166 114.332 23.9091 112.271 23.9882L111.599 23.7262L111.51 23.9546L111.493 23.9982C106.124 23.9308 102.899 20.859 102.763 16.854L103.464 16.992L103.558 16.5113L102.76 16.3541C102.773 15.3846 102.877 14.5846 103.148 13.6164H104.754L104.75 13.7127L107.744 13.8363L107.753 13.6164H109.494C109.299 14.4653 109.234 15.249 109.234 16C109.234 16.0774 109.236 16.1541 109.24 16.2301L107 15.9142L107.028 15.7105L104.185 15.3174L104.158 15.5132L103.94 15.4826L103.872 15.9676L104.886 16.1107L104.914 15.9126L106.943 16.1929L106.914 16.3968L109.292 16.7323C109.504 17.9885 110.291 18.9388 111.772 18.9388C112.133 18.9388 112.447 18.8959 112.719 18.8146L112.915 18.8533L112.938 18.7369C113.537 18.49 113.898 18.0273 114.092 17.4091L115.026 17.541L115.057 17.3146L116.438 17.5054L116.505 17.0202L114.237 16.7066C114.264 16.4736 114.278 16.2264 114.278 15.9673V15.4684L116.037 15.6145L116.078 15.1264L114.278 14.9769V12.5301H114.42V12.0403H114.278V8.82031L114.447 8.79943L114.451 8.83307L114.478 9.07653L117.348 8.7602L117.295 8.27328L116.606 8.34917L116.569 8.04464L114.278 8.32701V7.76547L116.44 7.43894L116.367 6.95472L114.278 7.27009V7.08578C114.278 6.11827 114.03 5.5229 113.536 5.24617L115.86 4.69133L115.747 4.21476L113.029 4.86368L113.083 5.09072C112.969 5.07088 112.846 5.06123 112.716 5.06122C111.804 5.06122 111.088 5.51837 111.088 7.02041V7.75159L110.805 7.79448L110.878 8.2787L111.088 8.24681V8.72003L110.998 8.73119L111.058 9.21732L111.088 9.21349V9.79592H107.778L107.727 9.32765L107.307 9.37388L107.284 9.18878L105.036 9.46588V9.16071L107.169 8.83865L107.097 8.35427L105.036 8.66534V7.27487L106.799 6.85427L106.686 6.37771L105.029 6.77312C105.004 6.4434 104.912 6.16561 104.757 5.94388L104.727 5.82972L104.679 5.84247C104.387 5.50338 103.924 5.32239 103.311 5.32239H101.619V4.17427L103.64 3.35459L103.578 3.20217L104.019 3.00733L103.822 2.55915L101.619 3.53348V0.228635H102.889L102.892 0.234216L103.014 0.446588L103.392 0.228635H103.571C105.095 0.228641 106.247 0.6431 107.091 1.42698L107.021 1.4552L107.204 1.90928L107.453 1.80835C107.743 2.15377 107.988 2.55323 108.192 3.00415H108.322C109.169 1.20823 111.186 0.0326946 113.594 0.032685ZM105.388 21.8315L107.974 22.8393L108.151 22.3827L105.564 21.3748L105.388 21.8315ZM114.713 21.9911L114.765 22.0057L114.763 22.0124L115.25 22.1435L115.253 22.1445L115.662 22.2604L115.663 22.2546L115.733 22.2734L115.859 21.8004L115.386 21.673L115.38 21.6712L114.845 21.5198L114.713 21.9911ZM107.235 19.8693L107.969 20.0773L107.942 20.1779L110.865 20.9641L110.991 20.4911L110.554 20.3734L110.573 20.3072L107.368 19.398L107.235 19.8693ZM114.806 19.2256L117.641 19.784L117.735 19.3033L114.9 18.7449L114.806 19.2256ZM104.03 18.96L105.056 19.251L105.019 19.3917L105.993 19.6539L106.119 19.1808L105.192 18.9313L105.231 18.7918L104.163 18.4887L104.03 18.96ZM117.054 17.827L120.095 18.2562L120.163 17.7712L117.122 17.342L117.054 17.827ZM105.354 17.3643L108.189 17.9227L108.284 17.442L105.448 16.8836L105.354 17.3643ZM103.869 14.6048L106.677 14.8379L106.717 14.3496L103.909 14.1167L103.869 14.6048ZM114.728 14.1247L117.722 14.2481L117.742 13.7588L114.748 13.6352L114.728 14.1247ZM115.375 12.1162L115.375 12.606L118.197 12.6012L118.196 12.1114L115.375 12.1162ZM118.521 12.0403V12.5301H119.546V12.0403H118.521ZM117.953 10.9455L117.971 11.4349L118.977 11.3978L118.959 10.9083L117.953 10.9455ZM115.385 9.67618L115.422 10.1645L118.297 9.94627L118.26 9.45791L115.385 9.67618ZM105.493 7.74219L105.583 8.22353L108.503 7.67044L108.413 7.18909L105.493 7.74219ZM115.227 5.89844L115.318 6.37978L118.238 5.82653L118.147 5.34534L115.227 5.89844ZM110.311 5.5126L110.423 5.989L111.33 5.7728L111.217 5.29624L110.311 5.5126ZM108.48 4.81999L108.472 4.79257L108.405 4.55724L105.694 5.3412L105.829 5.81186L106.758 5.54321L106.819 5.77392L109.769 4.98055L109.643 4.50749L108.48 4.81999ZM102.424 4.85427L102.589 5.31521L103.484 4.99267L103.319 4.53173L102.424 4.85427ZM105.108 3.8868L105.273 4.34774L107.958 3.38026L107.793 2.91932L105.108 3.8868ZM112.02 3.51212L112.155 3.98278L113.058 3.72146L112.923 3.2508L112.02 3.51212ZM113.576 3.44978L113.702 3.92283L114.685 3.65832L114.559 3.18527L113.576 3.44978ZM111.372 1.6293L111.537 2.09024L112.432 1.76786L112.267 1.30692L111.372 1.6293Z" fill="#09090B"/>
<path fill-rule="evenodd" clip-rule="evenodd" d="M19.7493 3.64764L19.6088 3.62835L19.6147 3.58737L16.5798 3.15928L16.5118 3.64429L17.2066 3.74219L17.2001 3.79002L19.8069 4.15019L19.9156 5.09391C16.3035 5.48575 13.635 5.747 11.715 5.94292C10.6181 6.05879 9.3547 6.20051 8.20027 6.44754L8.20265 6.4206L8.22267 6.1765L7.2059 6.09216L7.16554 6.5802L7.51988 6.60953C6.36135 6.91788 5.3853 7.36123 4.91384 8.03268H5.04397C5.82496 7.34698 7.06152 7.02042 8.39571 7.02041C10.2481 7.02041 11.8155 7.89817 12.8089 9.42746L12.4282 9.41183L12.4081 9.90115L13.1022 9.92969C13.2414 10.1959 13.3652 10.4781 13.4723 10.7755H13.6024C13.7086 10.4913 13.8287 10.221 13.9634 9.96524L15.2385 10.018L15.2586 9.5287L14.244 9.48677C14.9404 8.41783 15.9478 7.65905 17.346 7.28508L17.3345 7.42411L18.3515 7.50845L18.3861 7.08737C18.7542 7.04302 19.1444 7.02041 19.5576 7.02041C20.3055 7.02041 21.0061 7.11458 21.6555 7.29114L20.4255 7.18909L20.3853 7.6773L23.1924 7.91008C25.4112 9.13147 26.7722 11.498 27.0295 14.2989L24.8233 14.3804L24.8412 14.8699L27.0632 14.7879C27.0706 14.9512 27.0748 15.1158 27.0748 15.2816C27.0748 15.6545 27.0654 16.021 27.0473 16.3822L24.4468 16.5799L24.4837 17.0682L27.0165 16.876C26.9822 17.3371 26.9328 17.7904 26.8679 18.2385L24.9958 18.445L25.0492 18.9318L26.7886 18.74C26.5495 20.1305 26.1594 21.4802 25.6139 22.8718L23.5154 23.2693L23.5915 23.6735H21.5975L21.5901 23.6339L21.3814 23.6735H18.9718C19.412 22.6381 19.7879 21.5617 20.0756 20.4298L20.5696 20.3691L20.5102 19.883L20.1978 19.9214C20.5152 18.5237 20.6966 17.0405 20.6966 15.4448C20.6966 14.5085 20.539 13.3169 20.0172 12.5301H20.047V12.0403H19.5719C19.2897 11.8207 18.9423 11.6897 18.5162 11.6897C17.0109 11.6898 16.6299 13.1674 16.5721 14.6848L15.2665 14.7329L15.2845 15.2224L16.5637 15.1752V17.1783L14.8268 17.3101L14.8637 17.7985L16.5637 17.6693V18.7755H10.5109V15.151C10.5109 13.9949 10.3566 13.1139 10.0261 12.5301H10.2883V12.5395L10.2886 12.7844L13.3612 12.7792L13.3609 12.5343V12.5301H15.3364V12.0403H12.51V12.2908L10.6258 12.294V12.0403H9.68372V12.0885C9.39897 11.8248 9.0368 11.6897 8.59099 11.6897C7.24927 11.6897 6.47889 12.6074 6.38727 15.0604L5.70974 15.0855L5.72754 15.5749L6.37838 15.5509C6.37836 15.5591 6.37822 15.5673 6.37822 15.5756C6.37822 16.3602 6.42764 17.1502 6.52504 17.9402L5.20684 18.0405L5.2437 18.5289L6.59082 18.4265C6.69016 19.096 6.82399 19.7646 6.99203 20.4289L5.95222 20.5435L6.00561 21.0305L7.11946 20.9077C7.34634 21.7222 7.6248 22.5289 7.95366 23.3217L7.11517 23.4483L7.14902 23.6735H1.75722C1.6365 23.3485 1.52335 23.0344 1.41719 22.7294L1.86162 22.6747L1.80219 22.1886L1.25591 22.2559C0.314624 19.436 0 17.3463 0 14.3347C5.12208e-07 13.7194 0.0148023 13.1234 0.0465563 12.5467V12.5569L0.0468741 12.8018L3.11943 12.7966L3.11896 12.5517V12.5301H5.9152V12.0403H3.08877V12.3068L1.20459 12.3099V12.0403H0.262336V12.3115L0.0603802 12.3119C0.126292 11.2796 0.249431 10.311 0.444748 9.40737L1.08621 9.43383L1.10623 8.94452L0.55804 8.92172C0.815901 7.89986 1.17504 6.9662 1.65887 6.12309L3.09798 6.24267L3.13818 5.75462L1.94615 5.65561C2.93588 4.15014 4.37354 2.96018 6.41159 2.10108L6.39538 2.21716L7.48683 2.37117L7.47666 2.44611L10.3937 2.84933L10.4602 2.364L9.48843 2.22959L9.49829 2.16024L7.11946 1.82462C8.34756 1.38144 9.77266 1.04442 11.4222 0.816327C13.2 0.573066 15.4015 0.329944 17.8052 0.123724L17.9232 0.147003L17.9297 0.113042C18.3897 0.0739383 18.8569 0.0361026 19.3298 0L19.7493 3.64764ZM3.67287 21.9581L3.73245 22.4442L6.5387 22.0984L6.47912 21.6122L3.67287 21.9581ZM19.8468 21.5263L19.9194 22.0105L22.8576 21.567L22.785 21.0827L19.8468 21.5263ZM3.09576 20.8584L3.14899 21.3452L4.10125 21.2403L4.04786 20.7535L3.09576 20.8584ZM22.3809 19.6524L22.4405 20.1386L25.2467 19.7927L25.1871 19.3066L22.3809 19.6524ZM22.1394 18.7597L22.1926 19.2467L23.1449 19.1416L23.0915 18.6548L22.1394 18.7597ZM2.32083 18.2596L2.35769 18.7479L3.31964 18.6749L3.28278 18.1865L2.32083 18.2596ZM11.9408 17.5292L11.9777 18.0175L12.9396 17.9445L12.9029 17.4562L11.9408 17.5292ZM21.5608 16.7989L21.5977 17.2873L22.5596 17.2143L22.5229 16.7259L21.5608 16.7989ZM2.84264 15.1913L2.86059 15.6808L3.81619 15.6454L3.79823 15.1559L2.84264 15.1913ZM12.3994 14.8388L12.4174 15.3283L13.3731 15.293L13.3552 14.8036L12.3994 14.8388ZM21.9563 14.4863L21.9743 14.9758L22.9299 14.9405L22.9119 14.4511L21.9563 14.4863ZM21.9314 12.0403V12.2747L20.5298 12.2773L20.5305 12.7671L23.6031 12.7618L23.6026 12.5301H24.7576V12.0403H21.9314ZM21.843 10.2907L24.6734 10.4075L24.6934 9.91805L21.863 9.80118L21.843 10.2907ZM19.0125 10.1738L19.956 10.2127L19.976 9.72337L19.0326 9.68447L19.0125 10.1738ZM9.57757 9.78428L10.5211 9.82334L10.5411 9.33386L9.59775 9.29496L9.57757 9.78428ZM2.97325 9.5118L5.80365 9.62851L5.82367 9.13919L2.99327 9.02232L2.97325 9.5118ZM13.4769 3.2162L14.2907 3.33099L14.2831 3.3868L15.2554 3.52121L15.3221 3.03603L14.5488 2.92905L14.5566 2.87388L13.5449 2.73119L13.4769 3.2162Z" fill="#09090B"/>
<path d="M76.0492 10.5242L76.0381 10.5195L76.0384 10.5179L76.0492 10.5242Z" fill="#09090B"/>
<path fill-rule="evenodd" clip-rule="evenodd" d="M70.1016 0.032685C70.9381 0.0326869 71.7303 0.113313 72.4707 0.268654L72.8505 0.92905L73.2733 0.684311L73.1268 0.429847C73.7854 0.615975 74.3975 0.865076 74.9566 1.17427L76.0762 3.95599L76.5289 3.77264L75.6601 1.61448C77.0256 2.57645 77.9962 3.94906 78.4563 5.65466L78.2968 5.35746L77.8671 5.58976L78.1223 6.06521L78.0626 6.08131L77.8268 6.14461L78.237 7.6816L78.7086 7.55485L78.387 6.35077L78.5156 6.28141L78.5914 6.24027C78.7008 6.80583 78.7577 7.40413 78.7577 8.03268C78.7577 8.41113 78.7338 8.77891 78.6875 9.13536L78.5254 8.73262L78.2146 8.85858L78.2335 8.83721L77.9154 8.55469L77.5919 8.9214L77.7259 9.04034L77.5687 9.13154L77.9183 9.73948L78.3124 9.51116L78.3224 9.53603L78.3383 9.57573L78.334 9.58068L78.3438 9.58945L78.3492 9.60284L78.3557 9.60013L78.4139 9.65163L78.5167 9.53492L78.5757 9.51116L78.6338 9.4874C78.6239 9.544 78.6133 9.60027 78.6022 9.65625L78.5218 9.74761L78.5737 9.79369C78.5715 9.80405 78.5694 9.81443 78.5671 9.82478L78.4568 9.86974L78.5197 10.0261C78.5094 10.0674 78.4986 10.1085 78.4876 10.1494L78.3371 10.0623L78.0931 10.4864L78.1611 10.5258L78.0685 10.596L78.1363 10.6864L77.9254 10.6043L77.7488 11.0607L77.7737 11.0705L77.7673 11.0926L77.7348 11.1347L77.7416 11.14L77.7063 11.2015L77.5843 11.4136L77.6639 11.4598L77.6591 11.477L77.7265 11.4962L77.7561 11.5132L77.7604 11.5057L77.7939 11.5153L77.8312 11.3827L77.8783 11.3012L77.8995 11.264L78.0039 11.3458L77.9442 11.558L77.9478 11.559C77.8526 11.7457 77.7496 11.9272 77.639 12.1033L77.6291 12.103V12.0403H76.797V12.5301H76.9242L76.9228 12.5641L77.311 12.58C77.2323 12.6848 77.1508 12.7875 77.0663 12.8878L77.045 12.8911L77.0477 12.9096C77.046 12.9116 77.0442 12.9136 77.0425 12.9157L77.0062 12.9203L77.0102 12.9534C76.0487 14.0675 74.7301 14.8941 73.1556 15.3702L73.0928 15.2141L73.0655 15.2251L72.9465 14.8104L71.6532 15.1843L71.5386 14.7554L71.1592 14.8575L70.7076 14.9652L70.7106 14.978L70.6789 14.9866L70.7421 15.2232L70.7976 15.4318L70.2856 15.5799L70.3531 15.8152L70.3563 15.8262C70.1863 15.833 70.0146 15.8367 69.8412 15.8367C67.7036 15.8367 65.8888 15.389 64.4619 14.5882L65.9929 14.4196L65.9397 13.9327L63.7955 14.169C63.7594 14.1436 63.7236 14.1179 63.6881 14.092L65.8497 13.9279L65.813 13.4394L63.1328 13.6429C62.8079 13.352 62.5155 13.0358 62.2573 12.6961L64.5703 12.6923L64.5695 12.2025L62.4428 12.206V12.0403H61.8179C61.798 12.0065 61.7785 11.9724 61.7593 11.9381L62.413 11.9652L62.433 11.4758L61.5047 11.4373C61.4508 11.319 61.4002 11.1988 61.3528 11.0767L64.112 11.3056L64.1522 10.8176L61.1787 10.5708C61.1149 10.3594 61.0605 10.143 61.0156 9.92204L61.8308 10.0371L61.8988 9.55214L61.3056 9.46843L61.3161 9.3927L60.9206 9.33801C60.891 9.09784 60.8722 8.85277 60.8642 8.60316L62.9116 9.00638L63.0057 8.52567L60.8598 8.103V7.73884C60.8598 7.66384 60.858 7.58886 60.8555 7.51419L62.7846 8.03316L62.9111 7.56011L60.8153 6.99633C60.8021 6.89054 60.7857 6.78617 60.7662 6.68367L61.1234 6.78508L61.2561 6.31378L60.6213 6.13361C60.332 5.30333 59.7533 4.70203 58.7446 4.70201C56.8571 4.70201 56.2714 6.59592 56.2714 8.32653C56.2714 8.45171 56.2735 8.575 56.278 8.69643L54.2254 8.41279L54.1588 8.89796L54.5955 8.95823L54.5875 9.01531L56.3158 9.25909C56.3878 9.98953 56.545 10.6479 56.7749 11.2422H56.7722L56.752 11.7315L56.9921 11.7414C57.0414 11.8431 57.093 11.9427 57.1469 12.0403H56.79V12.5301H57.4464C58.1519 13.5757 59.133 14.3667 60.2719 14.9775L60.2725 14.9826L59.7969 15.0413L59.8268 15.2843L59.8514 15.4866L59.0212 15.6121L59.0938 16.0965L61.8448 15.681C62.0453 15.7557 62.2486 15.8265 62.4541 15.894L62.0202 15.9762L62.1108 16.4576L63.4787 16.1983C63.8148 16.2886 64.1547 16.3715 64.4963 16.4479L64.3658 16.4791L64.4114 16.6722L64.027 16.7757L64.1534 17.2487L65.8872 16.7822C66.6255 16.9741 67.3566 17.1935 68.0533 17.464L68.0735 17.5139L68.1648 17.7409L68.4497 17.6252C68.6663 17.7174 68.8788 17.8153 69.0866 17.9193L67.2925 18.7129L67.4894 19.161L69.6317 18.2136C69.6671 18.2343 69.702 18.2555 69.7369 18.2766L67.8526 19.3686L68.0968 19.7929L70.1976 18.5754C70.2557 18.616 70.3134 18.6569 70.3703 18.699L68.1868 19.9577L68.4299 20.3823L70.7812 19.0269C70.8204 19.0607 70.859 19.095 70.8973 19.1296L68.8989 20.6413L69.1927 21.0324L71.2522 19.4745C72.2073 20.4783 72.855 21.8226 72.9978 23.6735H72.3482L72.302 23.6347L72.2697 23.6735H71.5298L71.8345 23.2819L71.4498 22.9804L70.9104 23.6735H69.1875L71.0481 21.806L70.7029 21.4597L68.6027 23.5676L68.7082 23.6735H66.8149C66.5871 21.9102 64.0814 21.2245 61.6407 21.2245C59.6393 21.2245 57.4631 21.7217 55.746 22.5497L55.6418 22.291L55.3092 22.4257L55.2762 22.3659L55.9138 22.1363L55.7489 21.6752L55.0359 21.9321L54.3521 20.6969L55.3429 20.4104L55.2079 19.9397L54.1088 20.2575L53.5241 19.2012L53.494 19.074L53.4583 19.0824L53.3426 18.8734C54.1236 18.3183 55.2626 17.8286 56.1086 17.698V17.5673C54.2815 16.8006 52.7005 15.5233 51.5901 13.8833L51.6005 13.883L51.5825 13.3935L51.2854 13.4043C51.1171 13.1222 50.9622 12.8306 50.8219 12.5301H51.2557L51.256 12.7148L54.3285 12.7097L54.3276 12.2199L53.0215 12.2219V12.0403H50.6091C50.5338 11.853 50.4642 11.6626 50.4 11.4692L52.9781 11.5757L52.9981 11.0864L50.2495 10.9729C50.0178 10.1276 49.8931 9.23078 49.8931 8.29385C49.8931 6.65009 50.2356 5.14623 50.9029 3.88504L50.9938 3.91087L51.0998 3.53476C51.5975 2.70509 52.2463 1.99336 53.0409 1.4324L54.3638 1.94802L54.5405 1.49139L54.25 1.37819L54.3009 1.25813L53.7189 1.0102C54.8667 0.38343 56.2639 0.032685 57.8984 0.032685C57.9141 0.032685 57.9298 0.0327694 57.9455 0.0328444L58.106 0.125957L58.1576 0.0360332C60.7366 0.104838 62.7807 1.20177 63.7885 2.97146H63.9512C64.2647 2.36403 64.7326 1.83583 65.3227 1.40131L66.0931 2.00558L66.3936 1.61958L65.7507 1.11543C66.8981 0.420576 68.4089 0.032685 70.1016 0.032685ZM67.8248 22.9128L68.121 23.3021L70.5422 21.4475L70.2459 21.0582L67.8248 22.9128ZM66.4712 22.4775L66.7651 22.8686L67.5742 22.2565L67.2804 21.8654L66.4712 22.4775ZM65.4641 21.5271L65.7072 21.9518L66.6148 21.4287L66.3715 21.004L65.4641 21.5271ZM65.2249 20.8914L65.469 21.3157L66.345 20.808L66.1008 20.3839L65.2249 20.8914ZM59.2476 20.4144L59.377 20.7761L59.1675 20.8613L59.3504 21.3154L60.232 20.9579L60.0988 20.6279L60.2873 20.5601L60.1223 20.0992L59.2476 20.4144ZM64.4313 19.9782L64.628 20.4263L65.5818 20.0046L65.385 19.5564L64.4313 19.9782ZM61.8716 19.4688L61.9541 19.6993L61.9639 19.727L61.8119 19.7889L61.9948 20.243L64.6391 19.1706L64.5762 19.0143L64.6605 18.9841L64.4956 18.5231L61.8716 19.4688ZM55.3059 18.6416L55.3625 18.8798L55.4127 19.0923L54.5243 19.3313L54.6506 19.8045L57.5015 19.0378L57.3966 18.6457L58.1368 18.4692L58.0238 17.9928L55.3059 18.6416ZM58.7555 18.9139L58.8907 19.3846L59.7777 19.128L59.6425 18.6574L58.7555 18.9139ZM61.4164 18.1445L61.5514 18.6151L64.2123 17.8458L64.0771 17.3752L61.4164 18.1445ZM61.6479 17.1279L61.7119 17.3983L61.1761 17.5424L61.3026 18.0155L62.2528 17.7599L62.1842 17.5032L62.6667 17.3881L62.5538 16.9115L61.6479 17.1279ZM59.1323 16.5233L59.2228 17.0045L60.1854 16.8222L60.0948 16.3409L59.1323 16.5233ZM56.0831 16.0556L56.1557 16.54L57.1351 16.3922L57.0625 15.9078L56.0831 16.0556ZM56.9908 15.3871L57.0503 15.8732L57.9857 15.758L57.9262 15.2718L56.9908 15.3871ZM53.5612 15.2969L53.6146 15.7838L56.4711 15.4689L56.4179 14.9821L53.5612 15.2969ZM68.7585 14.6999L68.849 15.1813L69.8116 14.9989L69.721 14.5175L68.7585 14.6999ZM66.3448 14.2342L66.3746 14.4774L66.3774 14.5014L65.8767 14.5772L65.9494 15.0615L66.9286 14.9137L66.8924 14.6716L66.8906 14.6604L67.3397 14.6052L67.2803 14.1189L66.3448 14.2342ZM69.7404 12.7237L69.7555 13.14L69.661 13.1473L69.6978 13.6357L69.7612 13.6307L69.7751 13.7565L69.781 13.8107L69.1509 13.8884L69.1743 14.0792L68.8147 14.1336L68.8873 14.618L71.6551 14.2001L71.7369 14.6342L73.0872 14.3783L73.092 14.396L72.8742 14.4482L72.9871 14.9247L75.0432 14.434L75.0177 14.3267L75.5121 14.1939L75.3857 13.7208L74.5956 13.9332L74.5341 13.606L71.8174 14.1204L71.8073 14.0544L72.0168 14.0287L71.9572 13.5426L70.7318 13.6936L70.7005 13.4082L70.6485 13.4137L70.6414 13.3186L70.6309 13.181L70.714 13.1779L70.6962 12.6885L69.7404 12.7237ZM53.307 14.3889L53.3437 14.8772L56.2297 14.6582L56.1929 14.1698L53.307 14.3889ZM53.4939 13.323L53.5118 13.8125L56.3788 13.7066L56.3608 13.2172L53.4939 13.323ZM71.8855 11.3479L72.7108 11.4619L72.7018 11.5269L71.2706 11.4083L71.2348 11.8391L69.0375 11.7484L69.0192 12.1948L68.6661 12.1955L68.6669 12.6853L69.6912 12.6835L69.6909 12.5301H71.7393L71.7395 12.68L72.6096 12.6784L72.6164 12.8627L72.6185 12.9227L72.547 12.9283L72.5839 13.4166L72.6284 13.4131L72.6315 13.4416L72.6582 13.6851L75.5147 13.3704L75.4745 13.0024L75.4924 13.0018L75.4745 12.5123L74.8117 12.5367L74.8113 12.1851L71.8641 12.1899V12.0403H71.8607L71.8644 11.949L74.281 12.1496L74.3099 11.7974L75.412 11.953L75.4801 11.468L74.5956 11.3431L74.6112 11.2302L71.9521 10.8627L71.8855 11.3479ZM76.1596 13.0247L75.6988 13.0815L75.7003 13.0941L75.6702 13.0987L75.7429 13.5831L76.227 13.5099L76.394 13.4893L76.3934 13.4847L76.4096 13.4823L76.337 12.9981L76.1596 13.0247ZM63.0506 12.9705L63.0686 13.46L65.9357 13.3543L65.9177 12.8648L63.0506 12.9705ZM75.6412 12.0403H75.6326V12.2449L75.6318 12.2658L75.6218 12.5104L75.6326 12.5107V12.5301H76.0975L76.2594 12.5367L76.2794 12.0474L76.2423 12.0458V12.0403H76.1099L75.642 12.021L75.6412 12.0403ZM66.1869 12.121L66.2114 12.122V12.5301H67.1535V12.0403H67.1353L67.1504 11.6706L66.2071 11.6315L66.1869 12.121ZM75.9458 10.3583L76.0042 10.3811L75.9539 10.4689L76.0055 10.4987L75.9575 10.4852L75.5272 10.3018L75.504 10.3565L75.4373 10.3377L75.3045 10.809L75.7961 10.9483L75.9114 10.9976L76.0994 10.5533L76.3997 10.7272L76.2974 11.0907L76.463 11.1378L76.4291 11.2181L76.6486 11.3115L76.5734 11.6967L76.5937 11.7007L76.5823 11.7439L77.3507 11.9506L77.477 11.4775L77.3873 11.4533L77.4054 11.3614L77.294 11.3394L77.3008 11.3235L77.3963 11.0981L76.9759 10.9188L77.0137 10.7849L76.7472 10.7092L76.7747 10.6617L76.8968 10.4496L76.7005 10.3359L76.7709 10.1543L76.1225 9.90163L75.9458 10.3583ZM68.1796 11.6432L69.1965 11.7277L69.2367 11.2395L68.2198 11.1551L68.1796 11.6432ZM75.6065 11.0072L75.6024 11.0064L75.5902 11.0686L75.4885 11.4498L75.5142 11.4566L75.5083 11.4869L75.9509 11.574L76.0702 11.6062L76.0723 11.5979L76.0813 11.5998L76.1074 11.467L76.1965 11.1331L76.1738 11.1269L76.1754 11.1191L76.0595 11.0963L75.6148 10.9767L75.6065 11.0072ZM67.6602 3.23438L69.5447 4.71221C69.4216 4.72185 69.3039 4.73806 69.1915 4.76116L67.3819 3.71237L67.1377 4.13648L68.5842 4.97481C67.9361 5.3155 67.5405 5.96058 67.3696 6.82621L67.1875 6.74857L67.2981 6.46285L66.426 6.12309L66.2493 6.57972L66.5361 6.69149L66.5199 6.73023L66.4246 6.95568L67.2977 7.32765C67.2795 7.52157 67.2704 7.72414 67.2704 7.93463C67.2704 8.21798 67.288 8.48969 67.3235 8.74681L66.5408 8.53619L66.4143 9.00941L67.3217 9.25335L67.3756 9.05166C67.4004 9.1729 67.4296 9.29033 67.4635 9.40354L66.6048 9.23453L66.5107 9.71508L67.4105 9.89222L67.4897 9.48693C67.8297 10.533 68.5734 11.1999 69.7762 11.1999C69.8574 11.1999 69.9365 11.1971 70.0136 11.1915L70.885 11.3144L70.936 10.9495C71.0899 10.8724 71.2303 10.7788 71.3574 10.6695L71.9094 10.7782L72.0034 10.2977L71.9105 10.2793L71.9219 10.2371L71.9851 10.0005L71.8963 9.97656C72.1796 9.43307 72.3144 8.73453 72.3144 7.93463C72.3144 6.19448 71.6506 4.96064 70.2751 4.7382L70.3113 4.6918L67.9608 2.84853L67.6602 3.23438ZM77.3065 10.7991L77.4675 10.9254L77.4589 10.9479L77.533 10.9767L77.5509 10.9908L77.5551 10.9853L77.567 10.99L77.6034 11.0041L77.6653 10.8436L77.7012 10.7977L77.8516 10.6048L77.7796 10.5483L77.7801 10.5475L77.777 10.5464L77.6072 10.4131L77.3065 10.7991ZM63.0222 10.1229L63.6532 10.2101L63.6417 10.2926L66.3579 10.6757L66.4259 10.1907L65.7356 10.0933L65.7477 10.0053L63.0888 9.63776L63.0222 10.1229ZM76.9905 9.84742L77.1186 9.92172L77.0185 10.0223L77.495 10.5006L77.7812 10.2135L77.8738 10.3369L77.888 10.3559L77.883 10.3646L77.9035 10.3766L77.9127 10.3887L77.9178 10.3847L77.9467 10.4016L77.976 10.4185L78.0549 10.2811L78.1077 10.2414L78.3027 10.0941L78.2637 10.0421L78.1317 9.86623L77.8017 10.1156L77.513 9.82589L77.6172 9.64493L77.2347 9.42331L76.9905 9.84742ZM50.8923 10.2087L53.9431 10.4619L53.9833 9.97369L50.9325 9.72066L50.8923 10.2087ZM74.9288 9.87484L74.9943 9.91279L74.9694 9.97768L75.3879 10.1408L75.488 10.199L75.4969 10.1832L75.5134 10.1897L75.5546 10.0832L75.7322 9.77471L75.6845 9.74713L75.6901 9.7331L75.5991 9.69755L75.1731 9.45073L74.9288 9.87484ZM76.2818 9.28285L76.5362 9.53811L76.5165 9.57255L76.644 9.64637L76.7007 9.70344L76.7158 9.68814L76.7356 9.69962L76.7781 9.6258L77.046 9.35714L76.9741 9.28508L76.9797 9.27551L76.9438 9.25462L76.627 8.9367L76.2818 9.28285ZM74.3416 8.31202L74.636 8.48262L74.5287 8.6207L75.7192 9.55421L76.0198 9.16837L75.3803 8.66693L75.3958 8.64015L75.5179 8.42809L74.5858 7.88791L74.3416 8.31202ZM51.4999 8.53045L51.8781 8.58259L51.8712 8.63218L52.7766 8.75988L52.8446 8.27487L52.4456 8.21859L52.4528 8.16773L51.5665 8.04528L51.4999 8.53045ZM75.7807 7.31218L76.0667 7.56617L75.8925 7.69786L76.6851 8.75351L77.075 8.45887L76.5221 7.72226L76.561 7.67825L76.7228 7.4949L76.1043 6.94547L75.7807 7.31218ZM77.0444 8.21987L77.2454 8.56952L77.2238 8.59423L77.2972 8.65944L77.3356 8.72624L77.3577 8.71333L77.3798 8.73294L77.4381 8.66677L77.7583 8.48135L77.6965 8.37404L77.7035 8.36623L77.68 8.34534L77.467 7.97513L77.0444 8.21987ZM65.175 7.93479L66.188 8.22226L66.3208 7.7508L65.3079 7.46349L65.175 7.93479ZM73.4038 7.20265L73.3806 7.18925L73.2843 7.35619L73.1448 7.5354L73.1699 7.55501L73.1363 7.61336L73.5504 7.85348L73.7351 7.99825L74.0355 7.6124L73.9529 7.54751L73.9643 7.52774L73.8237 7.44627L73.4454 7.14955L73.4038 7.20265ZM51.2147 6.70297L53.914 7.23453L54.008 6.75383L51.3087 6.22226L51.2147 6.70297ZM74.9317 6.41789L75.0115 6.52423L74.96 6.58291L75.2468 6.83769L75.3642 6.99426L75.7541 6.69946L75.6766 6.5963L75.692 6.57908L75.6073 6.50383L75.3215 6.12325L74.9317 6.41789ZM71.5278 4.51132L73.5652 6.55628L73.9105 6.20998L71.8731 4.16502L71.5278 4.51132ZM50.9884 4.86065L53.7106 5.59263L53.8369 5.11958L51.1147 4.38744L50.9884 4.86065ZM60.1454 4.20105L60.2156 4.22832L60.1862 4.29783L62.8598 5.43686L63.0506 4.98613L62.8801 4.91342L62.9381 4.76387L60.3221 3.74442L60.1454 4.20105ZM55.0456 5.06059L56.0586 5.3479L56.1914 4.87659L55.1785 4.58929L55.0456 5.06059ZM66.0747 4.74394L66.9601 5.25702L67.2043 4.83275L66.3188 4.31967L66.0747 4.74394ZM77.3566 4.38345L77.383 4.48246L77.2975 4.52886L77.492 4.8911L77.5533 5.12006L78.0248 4.9933L77.9819 4.83291L78.0078 4.81904L77.9491 4.70982L77.8282 4.2567L77.3566 4.38345ZM73.7826 2.54927L75.1804 4.97959L75.6032 4.73469L74.2052 2.30437L73.7826 2.54927ZM70.6844 2.78428L72.5168 4.41231L72.8405 4.0456L71.0081 2.41757L70.6844 2.78428ZM57.5308 3.16645L57.5698 3.18304L57.5652 3.19547L57.9609 3.34965L58.4039 3.53842L58.5947 3.08753L58.5728 3.07813L58.578 3.06473L58.1449 2.89605L57.7216 2.71556L57.5308 3.16645ZM70.7238 0.813138L72.5271 3.21524L72.9171 2.92044L71.1136 0.518495L70.7238 0.813138ZM69.4905 2.46636L70.1696 3.14812L70.5149 2.80182L69.8358 2.12006L69.4905 2.46636ZM64.567 2.64652L65.4239 3.14318L65.6681 2.71907L64.8112 2.22226L64.567 2.64652ZM59.8767 1.1521L62.5329 2.69149L62.7772 2.26738L60.1209 0.727997L59.8767 1.1521ZM68.8521 1.15625L69.4628 1.69898L69.7865 1.33227L69.1757 0.789541L68.8521 1.15625Z" fill="#09090B"/>
<path fill-rule="evenodd" clip-rule="evenodd" d="M84.083 12.5416L84.0939 12.5402L84.0942 12.5427L84.1649 12.5375L84.1645 12.5301H84.1665V12.3817L84.1845 12.5292L84.1847 12.5301H84.2117V12.5257L84.2479 12.5212V12.5301H84.4535V12.5155L84.6923 12.4973L84.6985 12.6621L84.8034 12.6582L84.794 12.889L85.1606 12.904L85.1485 13.0513L85.1822 13.0541L85.1646 13.1832L86.5039 13.3681L86.4975 13.4015L86.4836 13.4721L86.003 13.3358L85.8702 13.8071L85.9687 13.835L85.913 13.9796L85.8246 14.2079L85.8939 14.2349L85.8906 14.2474L86.0051 14.2782L86.4233 14.4412L86.441 14.3954L86.5047 14.4126L86.6104 14.0171L87.9303 14.3916C87.9521 14.8119 87.9778 15.2208 88.0061 15.6185L87.6926 15.4849L87.5038 15.3755L87.4903 15.3988L87.4881 15.3978L87.48 15.4166L87.2596 15.7996L87.3065 15.8267L87.2973 15.8485L87.4747 15.9241L87.9219 16.1834L88.0336 15.989C88.0589 16.3174 88.0862 16.638 88.1154 16.9509L88.1008 16.9424L87.8567 17.3666L88.1742 17.5505C88.1787 17.5943 88.1834 17.638 88.188 17.6814L87.4881 17.0596L87.1646 17.4263L88.2697 18.4082C88.5262 20.5626 88.8605 22.2986 89.1705 23.6735H84.5395L83.462 20.9967L83.0095 21.1802L84.013 23.6735H82.7273C82.7269 23.6722 82.7265 23.6709 82.7262 23.6696L82.9108 23.6558L82.9081 23.6199L82.9913 23.5976L82.873 23.1543L82.8579 22.9552L82.8205 22.9579L82.766 22.7538L82.5302 22.8173L82.4897 22.8281C82.2436 21.9061 82.0199 20.9054 81.8316 19.7607L81.9579 19.7269L81.6627 18.6213C81.6018 18.1611 81.5468 17.6782 81.4974 17.1695L81.8621 17.0218L81.4215 15.9271L81.3938 15.9383C81.3896 15.879 81.3852 15.8194 81.3811 15.7594L81.4208 15.8284L81.6322 15.7062L81.822 15.596L81.856 15.6411L81.955 15.773L81.8279 15.7827L81.8524 16.1073L82.3391 16.0703L82.3192 15.8071L82.493 15.6757L82.2013 15.287L82.0064 15.4345L81.9755 15.4576L81.8044 15.4707L81.8076 15.5121L81.8082 15.5223L81.5349 15.047L81.6503 14.96L81.8143 14.8359L81.8608 14.8827L81.7607 14.8903L81.7795 15.139L82.2662 15.102L82.2474 14.8533L82.0044 14.8717L82.0998 14.7761L82.1842 14.6913L82.235 14.6875L82.2329 14.6623L82.5379 14.9015L82.6882 14.7085L82.7317 14.6524L82.8182 14.8136L83.2478 14.5813L83.074 14.2575L82.7397 14.438L82.5593 14.2966L82.5922 14.3157L82.7473 14.4056L82.9562 14.0424L82.9581 14.0415L82.9575 14.0402L82.9763 14.0075L83.0468 14.0376L83.1383 13.8213L83.2864 13.6537L83.3781 13.5497L83.4385 13.5847L83.4378 13.5877L83.4486 13.5906L83.623 13.6916L83.745 13.4796L83.7834 13.4125L84.1694 13.5628L84.1143 13.7696L84.5832 13.8956L84.5531 13.948L84.4311 14.1601L84.771 14.357L84.7176 14.4834L84.6823 14.5666L84.4375 14.3492L84.1627 14.6602L83.6117 14.3409L83.3676 14.765L84.2981 15.3042L84.4201 15.0922L84.4597 15.0231L84.73 15.2632L85.0535 14.8965L85.0449 14.8889L85.7687 15.1972L85.9594 14.7465L85.7591 14.6612L85.7653 14.6507L85.8875 14.4386L84.9038 13.8685L84.9388 13.7379L85.0018 13.5013L84.5954 13.3919L84.659 13.2282L84.6132 13.2103L84.6756 12.7651L84.1745 12.6944L84.1103 12.6818L84.0498 12.9908L83.8182 12.9005L83.8665 12.7294L83.7688 12.7017L83.7747 12.6596L84.0415 12.6591L84.0413 12.5467L84.0472 12.5464L84.054 12.5453L84.0412 12.4394V12.4142L84.0408 12.3036L84.0536 12.3012L84.083 12.5416ZM86.5535 21.8981L86.7897 22.2129L87.0371 22.6736L87.467 22.4413L87.4207 22.3552L87.4763 22.3133L87.2019 21.9477L87.0715 21.7049L87.0344 21.7246L86.9434 21.6033L86.5535 21.8981ZM83.1993 18.9204L84.7332 21.5871L85.156 21.3422L83.6222 18.6755L83.1993 18.9204ZM82.137 19.8839L82.2374 21.216L82.7241 21.179L82.6237 19.8471L82.137 19.8839ZM85.8213 18.8579L87.9564 21.001L88.3016 20.6547L86.1666 18.5116L85.8213 18.8579ZM84.695 18.3104L85.5294 19.8646L85.9592 19.6325L85.1248 18.0781L84.695 18.3104ZM81.997 18.6649L82.0562 18.812L82.0701 18.996L82.1284 18.9916L82.2582 19.3138L82.7109 19.1304L82.5371 18.6987L82.5318 18.628L82.5093 18.6296L82.4495 18.4813L81.997 18.6649ZM83.0922 17.2876L84.5757 19.2636L84.9655 18.9689L83.482 16.993L83.0922 17.2876ZM84.9693 16.808L87.1601 18.5261L87.4608 18.1403L85.2699 16.4222L84.9693 16.808ZM82.0769 16.4791L81.9844 16.5325L81.885 16.5402L81.8886 16.5882L81.8656 16.6016L81.8932 16.6499L81.8974 16.7033L81.9228 16.7012L82.1643 17.1213L81.9302 17.1392L81.9795 17.793L82.4662 17.7562L82.4169 17.1022L82.2209 17.117L82.5995 16.8978L82.2882 16.3567L82.0769 16.4791ZM83.9709 16.92L83.9538 16.9294L83.9565 16.9345L83.9307 16.9605L84.0167 17.0466L84.1389 17.2741L84.2067 17.2372L84.3979 17.4292L84.7432 17.0831L84.4123 16.751L84.3834 16.6971L84.3672 16.7057L84.276 16.6142L83.9709 16.92ZM85.565 15.9775L85.5513 15.9931L85.5543 15.9959L85.5388 16.0233L85.6724 16.1006L85.9562 16.3528L86.0073 16.2948L86.1264 16.3638L86.3706 15.9396L85.9592 15.7012L85.875 15.6264L85.8597 15.6437L85.7828 15.5992L85.565 15.9775ZM83.2001 15.1644L83.05 15.2455L83.0789 15.2996L83.0853 15.3115L83.0762 15.3235L83.1029 15.3444L83.125 15.3854L83.1428 15.3756L83.1436 15.3763L83.4768 15.6376L83.364 15.6987L82.7176 15.0499L82.3724 15.3962L83.0403 16.0666L83.333 15.7728L83.5855 16.2431L84.0151 16.0108L83.739 15.4962L83.5653 15.5898L83.659 15.4697L83.8092 15.2768L83.4842 15.022L83.4796 15.0132L83.4757 15.0153L83.3768 14.9377L83.2001 15.1644ZM83.6933 14.047L83.6927 14.0482L83.5475 14.2127L83.6004 14.2597L83.6025 14.2615L83.5978 14.2725L83.6303 14.2862L83.703 14.3509L83.7245 14.3264L83.8578 14.3831L84.0486 13.9324L83.8939 13.8664L83.8712 13.8461L83.8643 13.8538L83.8576 13.8509L83.7887 13.8216L83.6933 14.047Z" fill="#09090B"/>
<path fill-rule="evenodd" clip-rule="evenodd" d="M90.4072 0.032685C92.0526 0.0326887 93.5649 0.341162 94.8669 1L94.8108 1.04257L95.1047 1.43367L95.3362 1.25845C95.4763 1.34201 95.6135 1.43009 95.7479 1.52264L95.48 1.728L95.7762 2.11735L96.1571 1.82541C97.1182 2.58938 97.9117 3.61066 98.4924 4.91374L98.2002 5.03237L98.2045 5.04337L98.1736 5.05708L98.3705 5.50526L98.6816 5.36751C98.9015 5.93284 99.0841 6.54683 99.2262 7.21126L96.6573 7.95424L96.7925 8.4249L96.9746 8.37213L96.987 8.41821L99.3368 7.78619C99.4987 8.73023 99.5838 9.76872 99.5838 10.9061C99.5838 12.364 99.5495 13.6711 99.4874 14.8544L97.5268 14.578L97.5512 14.4007L94.7081 14.0077L94.6848 14.177L93.801 14.0523L93.733 14.5375L94.7471 14.6805L94.7707 14.5107L96.7994 14.7911L96.7749 14.9665L99.4596 15.3452C99.4216 15.969 99.3756 16.5575 99.3221 17.115L96.6854 16.3669L96.5526 16.8382L98.2602 17.3227L98.1976 17.5574L99.247 17.8396C99.2072 18.1932 99.1639 18.5338 99.1183 18.8629L96.9443 18.0156L96.7676 18.4723L99.0463 19.3602C98.8434 20.6887 98.5934 21.8245 98.3154 22.8616L96.7526 21.956L96.5084 22.3803L98.1806 23.3492C98.1496 23.4582 98.1186 23.5663 98.087 23.6735H94.932L93.5301 22.4278L93.3683 22.6111L93.2838 22.7066L92.5727 22.1491L92.2723 22.5351L93.7241 23.6735H91.6437C91.7794 23.0715 91.9197 22.4003 92.0562 21.6551L92.3217 21.3543L92.1386 21.1916C92.2636 20.4713 92.384 19.6862 92.4923 18.8324L92.5233 18.8504L92.7675 18.4263L92.5565 18.3041C92.5805 18.0993 92.604 17.8908 92.6264 17.6786L92.6593 17.6009L92.6358 17.5909C92.7918 16.096 92.9078 14.4146 92.9547 12.5301H93.7444L93.7446 12.6427L94.6851 12.6411L94.6841 12.1513L93.9127 12.1526V12.0403H93.807L93.7994 11.8363L92.9682 11.8669C92.9704 11.7277 92.972 11.5874 92.9735 11.4461L93.3437 11.4055L93.3764 11.8382L94.3349 11.7653L94.298 11.2769L93.4225 11.3434L93.375 10.9093L93.3583 10.911L93.3577 10.9051L93.2603 10.9171L93.2272 10.6958L93.2078 10.5673L93.9017 10.4361L93.8112 9.95472L93.1997 10.0705L93.0934 9.62213L92.9581 9.65434C92.9018 8.27282 92.7235 7.26234 92.4156 6.5558L93.1551 6.12978L92.912 5.70504L92.1871 6.12277C91.7684 5.46904 91.1788 5.19181 90.4072 5.19181C89.9908 5.19181 89.6275 5.27254 89.3154 5.44946L89.1956 5.2897L86.7889 7.11001L87.0827 7.50112L88.4324 6.48023C88.1929 6.99708 88.0273 7.68581 87.9325 8.57526L86.3393 9.49378L86.5012 9.77663L86.0955 9.94117L86.2517 10.3289L85.4032 10.7042L85.5017 10.9283L85.5996 11.1516L85.5089 11.1778L85.4641 11.0102L85.4348 11.018L85.4218 10.9815L84.9834 11.1395L84.9221 11.1561L84.9234 11.1612L84.8479 11.1885L85.0128 11.6494L85.1301 11.607L85.5566 11.4923L85.6047 11.6599L85.7796 11.6092L85.7998 11.7441L85.5483 11.7718L85.575 12.0153L85.5777 12.0403H85.2577V12.1673L84.974 12.1677L84.9739 12.1618L84.8047 12.168H84.7255L84.7133 12.0046L84.5735 12.0151L84.5703 11.9882L84.1465 12.0403H84.1222L84.122 12.0392L84.0931 11.8858L84.4751 11.7833L84.3488 11.3103L83.9252 11.4241L83.9009 11.3686L83.5872 11.507L83.5662 11.4705L83.6992 11.3688L83.403 10.9794L83.2542 11.0933L83.2462 11.0966L83.247 11.0987L83.2281 11.1134L83.1817 11.1489L83.23 11.2125L83.0962 11.1006L83.1178 11.0882L82.8819 10.6784L82.9065 10.6599L83.015 10.5778L82.9902 10.545L83.0118 10.4935L82.9238 10.4565L82.868 10.3823L82.7212 10.1867L82.5636 10.3058L82.5614 10.3048L82.5344 10.3701L82.5193 10.4061L82.6883 10.4769L82.708 10.5032L82.8425 10.6821L82.643 10.7977L82.6241 10.7897L82.399 10.6953L82.3305 10.8597L82.2965 10.8146L82.1495 10.6189L81.9401 10.7773L81.9385 10.7543L81.9366 10.729L81.8209 10.7377L81.6317 10.5478L81.9213 10.5258L81.9099 10.3736L81.8803 10.3758L81.9766 10.2522L81.592 9.95073L81.4645 10.1143L81.4455 10.1389L81.2826 10.0446L81.2479 10.0246C81.2515 9.93826 81.2558 9.8526 81.2603 9.76754L81.3573 9.53842L81.3584 9.55182L81.5336 9.53842L81.5638 9.55596L81.7701 9.67538L81.37 9.70584L81.3875 9.93702L81.8742 9.90003L81.8568 9.66901L81.7771 9.6749L82.093 9.1258L81.8031 8.95791L81.7869 8.74155L81.3399 8.77551C81.3472 8.70877 81.3546 8.64243 81.3625 8.57653L81.4014 8.57366L81.7099 8.7052L81.9318 8.18017L81.4825 7.98884L81.4224 8.13074C81.446 7.97172 81.4716 7.81525 81.4993 7.66135L81.7043 7.64605L81.6616 7.07892L81.6163 7.08227C82.724 2.13528 86.1119 0.032685 90.4072 0.032685ZM96.2046 20.9842L97.1249 21.5175L97.369 21.0934L96.4487 20.5601L96.2046 20.9842ZM93.913 20.8761L94.7782 21.3774L95.0223 20.9533L94.1571 20.452L93.913 20.8761ZM96.0905 19.595L96.9961 19.9807L97.1867 19.53L96.2814 19.1441L96.0905 19.595ZM94.1815 17.4644L95.0436 17.8004L95.2203 17.3439L94.3582 17.008L94.1815 17.4644ZM95.2744 16.7712L96.2489 17.0332L96.3753 16.5601L95.4008 16.298L95.2744 16.7712ZM93.3478 15.9287L94.4161 16.232L94.5489 15.7605L93.4807 15.4574L93.3478 15.9287ZM95.9022 15.503L98.7377 16.0614L98.8318 15.5807L95.9963 15.0223L95.9022 15.503ZM93.0667 14.9447L94.0118 15.1307L94.1059 14.6502L93.1608 14.464L93.0667 14.9447ZM94.5087 13.8281L97.3169 14.0611L97.3571 13.573L94.5491 13.3399L94.5087 13.8281ZM94.7722 13.3009L97.7656 13.4244L97.7856 12.9351L94.7922 12.8115L94.7722 13.3009ZM97.825 11.6878L97.8417 12.1459L96.5651 12.1481L96.5659 12.6379L99.3874 12.6331L99.3866 12.1433L99.0395 12.1438V12.0403H98.8456L98.8315 11.6507L97.825 11.6878ZM96.2151 11.1314L96.252 11.6199L99.1273 11.4016L99.0905 10.9131L96.2151 11.1314ZM83.5426 10.9766L83.7254 11.4306L84.0347 11.3052L83.8518 10.8511L83.5426 10.9766ZM95.2147 10.6763L95.2741 11.1625L95.3385 11.1545L95.342 11.1853L98.2122 10.8689L98.159 10.382L98.0079 10.3986L98 10.3331L95.2147 10.6763ZM84.4198 9.76786L84.0701 9.47513L83.9748 9.5896L83.8066 9.36575L83.2154 9.81266L82.8328 9.65242L82.6896 9.99649L82.4065 9.71253L81.9244 10.1964L82.2696 10.5427L82.7381 10.0724L83.1204 10.2326L83.233 9.96174L83.3021 10.0539L83.4491 10.2494L83.6868 10.0695L83.9964 10.3286L84.2425 10.0324L84.2949 10.1232L84.3639 10.2433L84.1027 10.4436L84.2803 10.6771L84.2639 10.684L84.2658 10.6889L84.1874 10.7342L84.4305 11.159L84.5131 11.1111L84.8544 10.9727L84.8353 10.9254L84.9392 10.8656L84.7614 10.555L85.4482 10.029L85.3001 9.83434L85.2942 9.82669L85.4487 9.7374L85.2044 9.3133L84.4198 9.76786ZM83.3431 10.3919L83.3225 10.3747L83.2753 10.4311L83.2643 10.4377L83.2666 10.4416L83.2476 10.4646L83.2062 10.5147L83.3937 10.6714L83.4035 10.6797L83.5084 10.8618L83.5572 10.8335L83.575 10.8232L83.581 10.8283L83.5947 10.8117L83.7291 10.7339L83.485 10.3098L83.3431 10.3919ZM95.7581 9.58594L95.8458 10.0526L95.045 10.1736L95.1176 10.658L97.8987 10.2382L97.8261 9.75383L96.238 9.99346L98.769 9.51419L98.6784 9.03284L95.7581 9.58594ZM94.9058 9.18957L95.0188 9.66598L97.7372 9.01706L97.6242 8.54066L94.9058 9.18957ZM82.1014 9.2964L82.4861 9.5979L83.25 8.61639L82.8653 8.31489L82.1014 9.2964ZM83.3025 8.52376L83.5059 8.6089L83.1482 8.96795L83.1221 8.95711L83.0956 9.02073L83.0493 9.06728L83.0683 9.08626L83.05 9.13058L83.1572 9.17554L83.3946 9.41358L83.4749 9.33291L83.4919 9.31569L83.5004 9.31936L83.509 9.29847L83.8813 8.9249L83.6098 8.65242L83.7529 8.71237L84.0234 8.0625L83.5729 7.87372L83.3025 8.52376ZM94.8524 8.48517L94.85 8.47688L94.4026 8.60619L93.9321 8.73278L93.9343 8.74155L93.8029 8.77966L93.9381 9.25032L94.5289 9.0794L95.0205 8.94707L94.8942 8.47401L94.8524 8.48517ZM84.7605 8.64397L84.6748 8.70902L84.6899 8.72911L84.6682 8.75558L84.7805 8.84949L84.9686 9.10013L85.0271 9.0558L85.043 9.0692L85.0996 9.00112L85.4784 8.71461L85.4115 8.62564L85.4428 8.58817L85.2831 8.45472L85.1846 8.3235L85.1539 8.34662L85.068 8.27455L84.7605 8.64397ZM86.7383 8.42459L86.5802 8.5161L86.5919 8.53651L86.5511 8.56792L86.7924 8.88536L86.8242 8.94037L86.8312 8.93623L86.8473 8.95727L87.0098 8.83259L87.4234 8.59311L87.1794 8.16885L87.1094 8.20934L87.0762 8.16566L86.7383 8.42459ZM93.4754 8.07908L93.6405 8.54018L94.5353 8.21763L94.3703 7.7567L93.4754 8.07908ZM93.2159 7.05357L93.2827 7.21971L92.9152 7.38233L93.112 7.83052L95.3656 6.83402L95.3194 6.72864L95.5349 6.64142L95.352 6.18734L93.2159 7.05357ZM96.16 7.11161L96.325 7.5727L99.0096 6.60523L98.8445 6.14413L96.16 7.11161ZM84.2226 6.57095L84.1309 6.53253L83.9911 6.8683L83.884 7.00606L84.2687 7.30756L84.3625 7.18686L84.3839 7.19595L84.4163 7.11798L84.7031 6.74952L84.3184 6.44802L84.2226 6.57095ZM87.9301 4.83036L87.6003 4.49936L85.1617 6.94691L85.507 7.29321L87.7781 5.01355L86.3679 6.7103L86.7429 7.02392L88.6928 4.67762L88.318 4.364L87.9301 4.83036ZM82.8008 6.91534L83.2237 7.16024L84.9195 4.21173L84.4969 3.96684L82.8008 6.91534ZM82.2109 6.26674L82.6602 6.45807L83.7526 3.87484L83.3033 3.68351L82.2109 6.26674ZM84.7406 5.06712L85.1911 5.2559L86.1057 3.05788L85.6552 2.8691L84.7406 5.06712ZM94.5551 4.75781L94.7982 5.18256L97.2629 3.7618L97.0197 3.33705L94.5551 4.75781ZM85.5469 4.8699L85.9315 5.1714L87.7739 2.80437L87.3893 2.50287L85.5469 4.8699ZM94.8707 3.71173L95.1147 4.136L95.9694 3.64062L95.7252 3.21652L94.8707 3.71173ZM93.3791 3.33753L93.6753 3.72672L94.3756 3.19037L94.0794 2.80102L93.3791 3.33753ZM92.4043 2.86272L92.6981 3.25383L93.5002 2.64716L93.2064 2.25606L92.4043 2.86272ZM91.5421 0.54257L91.5137 0.518814L91.2503 0.835619L90.8514 1.23613L91.1967 1.58243L91.2584 1.52025L91.293 1.54927L91.6106 1.16661L91.9584 0.817761L91.6132 0.47146L91.5421 0.54257Z" fill="#09090B"/>
<path fill-rule="evenodd" clip-rule="evenodd" d="M154.823 0.032685C157.433 0.0326909 159.707 0.808739 161.339 2.52695L160.205 2.66677L160.265 3.1529L161.73 2.97226C161.938 3.22832 162.134 3.50218 162.316 3.79432L162.317 3.80437L162.322 3.80373C162.728 4.45563 163.067 5.19812 163.333 6.03603L163.309 6.03795L163.346 6.52631L163.474 6.51642C163.698 7.34045 163.854 8.25007 163.935 9.2492L161.227 9.34917L161.245 9.83865L163.968 9.7382C163.989 10.1153 164 10.5045 164 10.9061C164 11.2923 163.997 11.6679 163.993 12.0335L162.255 12.0365V12.0403H162.254V12.5301H163.985C163.887 17.7229 163.318 20.8246 162.586 23.3889L161.047 23.1762L160.98 23.6615L161.067 23.6735H160.695L160.721 23.4923L159.103 23.2642L159.152 22.9142L158.204 22.7833L158.156 23.1306L157.679 23.0633L157.611 23.5483L158.498 23.6735H156.06C156.483 21.7965 156.951 19.2468 157.205 15.8779L157.634 15.8956L157.654 15.4063L157.24 15.389C157.337 13.9633 157.394 12.3963 157.394 10.6776C157.394 6.62866 156.581 5.19182 154.823 5.19181C153.219 5.19181 152.401 6.38951 152.271 9.67953L151.163 9.7205L151.181 10.21L152.257 10.1701C152.254 10.3345 152.253 10.5037 152.253 10.6776C152.253 12.3163 152.305 13.817 152.393 15.1889L151.667 15.1591L151.647 15.6484L152.427 15.6806C152.49 16.562 152.569 17.3882 152.657 18.1617L150.71 18.0003L150.67 18.4884L152.717 18.6582C152.877 19.9569 153.065 21.0996 153.258 22.0997L151.57 21.8664L151.503 22.3517L153.358 22.6079C153.435 22.9849 153.511 23.3398 153.587 23.6735H147.143C146.521 21.5579 146.004 19.1061 145.774 15.4059L147.656 15.4837L147.676 14.9944L145.746 14.9147C145.707 14.1782 145.678 13.3937 145.662 12.5544L146.411 12.5533L146.41 12.0635L145.654 12.0646C145.649 11.6893 145.646 11.3032 145.646 10.9061C145.646 9.7951 145.728 8.77846 145.882 7.85204L147.052 7.76339L147.015 7.27487L145.974 7.35379C146.381 5.34921 147.151 3.79492 148.198 2.64445L148.887 2.5405L148.815 2.05612L148.794 2.05915C150.378 0.667187 152.464 0.032685 154.823 0.032685ZM148.694 21.7162L148.683 21.7942L147.54 21.633L147.472 22.118L150.513 22.547L150.581 22.062L149.63 21.9278L149.675 21.6044L148.727 21.4735L148.694 21.7162ZM160.03 19.2651L162.839 19.4981L162.879 19.01L160.071 18.7769L160.03 19.2651ZM157.222 19.032L158.159 19.1099L158.199 18.6217L157.263 18.544L157.222 19.032ZM147.862 18.2554L148.798 18.3331L148.839 17.8449L147.902 17.7672L147.862 18.2554ZM161.625 16.0603L162.623 16.1016L162.643 15.6121L161.645 15.571L161.625 16.0603ZM149.281 12.0403V12.5301H150.173V12.5469L151.113 12.5453L151.113 12.0555L150.307 12.0568V12.0403H149.281ZM160.047 12.0403H159.535V12.5301H159.578V12.5309L160.048 12.5301H160.489V12.5293H160.49L160.489 12.1621V12.0403L160.489 12.0395L160.047 12.0403ZM148.144 9.83179L148.162 10.3213L149.169 10.2841L149.151 9.79464L148.144 9.83179ZM158.208 9.46062L158.226 9.9501L159.232 9.91295L159.214 9.42347L158.208 9.46062ZM150.849 6.9839L150.886 7.47226L151.844 7.39955L151.807 6.91103L150.849 6.9839ZM160.434 6.25622L160.47 6.74458L161.429 6.67188L161.392 6.18351L160.434 6.25622ZM149.826 4.6883L149.879 5.17506L150.836 5.06968L150.782 4.58275L149.826 4.6883ZM152.696 4.37197L152.749 4.85874L155.62 4.54241L155.566 4.05564L152.696 4.37197ZM148.136 4.15434L148.195 4.64047L149.124 4.52599L149.064 4.03986L148.136 4.15434ZM150.921 3.81107L150.98 4.29719L153.766 3.95392L153.706 3.46779L150.921 3.81107ZM159.393 3.63377L159.447 4.1207L160.404 4.01531L160.35 3.52838L159.393 3.63377ZM157.42 3.01004L157.48 3.49617L158.408 3.3817L158.348 2.89557L157.42 3.01004ZM150.669 1.77631L150.741 2.26052L153.523 1.84072L153.45 1.35635L150.669 1.77631ZM157.158 0.796556L157.231 1.28093L158.158 1.14094L158.085 0.656569L157.158 0.796556Z" fill="#09090B"/>
<path d="M25.285 23.6735H24.0134L25.3958 23.4115C25.3594 23.4986 25.3225 23.5859 25.285 23.6735Z" fill="#09090B"/>
<path d="M72.0424 15.6398C71.8887 15.6684 71.7331 15.694 71.5757 15.7164L72.5451 15.4361L72.0424 15.6398Z" fill="#09090B"/>
<path d="M81.834 15.5646L81.833 15.5654L81.8327 15.5646H81.834Z" fill="#09090B"/>
<path d="M81.4176 15.0572L81.3399 15.1022C81.3369 15.0492 81.3343 14.9958 81.3314 14.9423L81.4176 15.0572Z" fill="#09090B"/>
<path d="M81.8136 14.7707L81.7771 14.7221L81.8689 14.7151L81.8136 14.7707Z" fill="#09090B"/>
<path d="M82.6335 13.8616L82.7671 13.9185L82.674 14.0804L82.6696 14.088L82.4829 14.1891L82.4994 14.2197L82.5269 14.2712L82.4347 14.199L82.1869 14.5172L82.1266 14.4568L81.9541 14.6299L81.9431 14.6408L81.7431 14.6561L81.7448 14.6791L81.578 14.4568L81.567 14.4649L81.6784 14.3533L81.7172 14.3143L81.7269 14.4415L82.2136 14.4047L82.2015 14.2436L81.9582 14.2621L81.9515 14.2626L82.0153 14.1808L82.0408 14.1478L82.1934 14.1363L82.1915 14.1095L82.1896 14.0851L82.0834 14.0931L82.1222 14.0434L82.2307 14.1063L82.3381 13.9195L82.351 13.9434L82.6724 13.7696L82.6335 13.8616Z" fill="#09090B"/>
<path d="M81.3787 14.4187L81.3844 14.4047L81.4971 14.5177L81.383 14.6041L81.3163 14.6545C81.315 14.6288 81.3139 14.603 81.3126 14.5772L81.3228 14.5529L81.3113 14.548C81.3088 14.4947 81.3063 14.4411 81.3039 14.3873L81.3787 14.4187Z" fill="#09090B"/>
<path d="M81.3455 14.3654L81.302 14.3471C81.3016 14.3382 81.3011 14.3294 81.3007 14.3205L81.3455 14.3654Z" fill="#09090B"/>
<path d="M81.3353 14.2827L81.3005 14.3174C81.3002 14.31 81.2999 14.3026 81.2996 14.2951L81.3231 14.2774L81.3353 14.2827Z" fill="#09090B"/>
<path d="M82.5525 14.2913L82.5293 14.2731L82.5782 14.2467L82.5525 14.2913Z" fill="#09090B"/>
<path d="M81.7903 14.2747L81.7539 14.2776L81.8511 14.1802L81.8346 14.1636L81.8797 14.1601L81.7903 14.2747Z" fill="#09090B"/>
<path d="M81.4704 14.0643L81.5168 14.1006L81.4718 14.1459L81.4183 14.1995L81.3695 14.179L81.3554 14.1602L81.3366 14.1352L81.3109 14.1545L81.2932 14.147C81.2919 14.1154 81.2908 14.0837 81.2896 14.052L81.3341 14.0077L81.3344 14.0072L81.4704 14.0643Z" fill="#09090B"/>
<path d="M81.9898 13.9667L82.0178 13.9828L81.9225 14.1052L81.7866 14.1154L81.6639 13.9923L81.7062 13.9383L81.7173 13.9238L81.9314 13.9077L82.028 13.9002L81.9898 13.9667Z" fill="#09090B"/>
<path d="M81.4358 13.9519L81.3991 13.9989L81.3592 13.9823L81.4032 13.9381L81.4358 13.9519Z" fill="#09090B"/>
<path d="M81.3274 13.9064L81.3296 13.9072L81.2858 13.9511C81.2853 13.9402 81.2849 13.9294 81.2845 13.9185L81.287 13.9206L81.3052 13.897L81.3274 13.9064Z" fill="#09090B"/>
<path d="M81.5645 13.7867L81.5449 13.8119L81.4909 13.8811L81.4691 13.872L81.5066 13.8345L81.4545 13.7822L81.3956 13.8412L81.3606 13.8265L81.4339 13.732L81.5645 13.7867Z" fill="#09090B"/>
<path d="M81.3814 13.71L81.3079 13.8044L81.2796 13.7926C81.2782 13.7542 81.2768 13.7156 81.2754 13.677L81.2835 13.669L81.3814 13.71Z" fill="#09090B"/>
<path d="M82.6523 12.8005L82.628 12.887L82.6408 12.8906L82.6407 12.8914L82.6415 12.8916L82.6218 12.9424L82.549 13.0692L82.6599 13.1335L82.5271 13.2841L82.48 13.264L82.4549 13.2533L82.3643 13.4672L82.1559 13.58L82.1697 13.6055L82.1831 13.6306L82.1169 13.7457L81.8929 13.7628L81.9512 13.6615L81.9522 13.6598L82.1564 13.6443L82.1544 13.6197L82.1532 13.6017L82.0683 13.6081L82.132 13.4574L82.1422 13.4568L82.1408 13.437L82.2029 13.29L82.2453 13.2669L82.3739 13.3017L82.4061 13.18L82.4756 13.1427L82.4359 13.0687L82.437 13.0651L82.4681 12.9482L82.5358 12.9579L82.5528 12.8359L82.6373 12.843L82.6408 12.8001L82.6523 12.8005Z" fill="#09090B"/>
<path d="M81.5149 13.6655L81.5038 13.6849L81.6002 13.7408L81.5835 13.7621L81.4529 13.7073L81.4928 13.6562L81.5149 13.6655Z" fill="#09090B"/>
<path d="M81.8341 13.7278L81.7652 13.6738L81.8697 13.666L81.8341 13.7278Z" fill="#09090B"/>
<path d="M81.3975 13.6162L81.3945 13.6217L81.4086 13.6298L81.4277 13.6409L81.4331 13.6312L81.4404 13.6342L81.4005 13.6854L81.3064 13.646L81.3128 13.6398L81.2754 13.6024L81.2796 13.5974L81.2727 13.5918C81.2726 13.5877 81.2726 13.5837 81.2724 13.5796L81.2818 13.5678L81.3975 13.6162Z" fill="#09090B"/>
<path d="M82.8941 13.2693L82.8531 13.423L82.8244 13.4107L82.7339 13.624L82.6818 13.5269L82.467 13.643L82.4362 13.6596L82.4022 13.6398L82.4535 13.5188L82.4683 13.4837L82.6159 13.404L82.5995 13.3732L82.596 13.367L82.6183 13.342L82.6121 13.3656L82.6418 13.3737L82.6837 13.3849L82.7284 13.2172L82.7541 13.188L82.8941 13.2693Z" fill="#09090B"/>
<path d="M81.9136 13.5548L81.9298 13.5617L81.8956 13.621L81.7154 13.6347L81.6952 13.6189L81.6902 13.6253L81.7399 13.5391L81.7475 13.5255L81.7499 13.5266L81.7559 13.5121L81.7572 13.5088L81.7709 13.4849L81.7809 13.4842L81.776 13.4962L81.7885 13.5016L81.8135 13.5121L81.8266 13.4807L81.8988 13.4753L81.9488 13.4715L81.9136 13.5548Z" fill="#09090B"/>
<path d="M82.0429 13.61L81.9779 13.6148L81.993 13.5886L82.0429 13.61Z" fill="#09090B"/>
<path d="M82.313 13.5883L82.2944 13.5776L82.3245 13.5614L82.313 13.5883Z" fill="#09090B"/>
<path d="M81.6249 13.4742L81.5621 13.5834L81.5526 13.5794L81.5877 13.5346L81.5608 13.5136L81.5444 13.5008L81.5001 13.5576L81.4803 13.5491L81.5432 13.4399L81.6249 13.4742Z" fill="#09090B"/>
<path d="M81.5074 13.4251L81.4447 13.5343L81.3611 13.4992L81.3455 13.4858L81.4084 13.405L81.4267 13.4203L81.435 13.4106L81.4426 13.4013L81.4343 13.3943L81.5074 13.4251Z" fill="#09090B"/>
<path d="M81.618 13.3814L81.601 13.4217L81.6446 13.4402L81.6396 13.4487L81.5578 13.4144L81.5848 13.3675L81.618 13.3814Z" fill="#09090B"/>
<path d="M82.9052 13.4444L82.9048 13.445L82.9008 13.4432L82.9052 13.4444Z" fill="#09090B"/>
<path d="M83.5327 13.1437L83.4753 13.2924L83.5001 13.302L83.4849 13.3288L83.4185 13.4439L83.1747 13.2274L83.2208 13.0552L83.5327 13.1437Z" fill="#09090B"/>
<path d="M81.5437 13.3503L81.5268 13.3901L81.5274 13.3903L81.5222 13.3996L81.4003 13.3485L81.4032 13.3439L81.4061 13.3386L81.4334 13.3503L81.4393 13.3363L81.4731 13.3646L81.5 13.332L81.5437 13.3503Z" fill="#09090B"/>
<path d="M82.5433 13.3205L82.5784 13.3516L82.508 13.3895L82.5388 13.3166L82.5433 13.3205Z" fill="#09090B"/>
<path d="M81.3047 13.3182L81.2664 13.3844C81.2654 13.3509 81.2643 13.3173 81.2634 13.2836L81.3047 13.3182Z" fill="#09090B"/>
<path d="M82.0145 13.3165L82.0091 13.3294L81.9967 13.3586L81.8907 13.3667L81.8745 13.3678L81.9063 13.2926L81.9979 13.2856L82.0145 13.3165Z" fill="#09090B"/>
<path d="M81.8503 13.3202L81.8144 13.2994L81.8605 13.2959L81.8503 13.3202Z" fill="#09090B"/>
<path d="M81.6913 13.2082L81.6633 13.2742L81.6391 13.2761L81.6404 13.2946L81.6411 13.3037L81.6253 13.297L81.6717 13.2167L81.6527 13.2057L81.6385 13.1975L81.6322 13.2082L81.6412 13.1872L81.6913 13.2082Z" fill="#09090B"/>
<path d="M81.3361 13.2634L81.3204 13.291L81.3326 13.2618L81.3361 13.2634Z" fill="#09090B"/>
<path d="M81.318 13.2349L81.2985 13.2808L81.2662 13.2537L81.2904 13.2117L81.318 13.2349Z" fill="#09090B"/>
<path d="M81.6169 13.1771L81.5751 13.276L81.4814 13.2368L81.5073 13.1752L81.5799 13.2361L81.5875 13.2269L81.5972 13.2152L81.5184 13.1492L81.5232 13.1378L81.6169 13.1771Z" fill="#09090B"/>
<path d="M81.8205 13.2624L81.7586 13.2671L81.7555 13.2653L81.7664 13.2396L81.8205 13.2624Z" fill="#09090B"/>
<path d="M81.8891 13.192L81.8967 13.1733L81.9109 13.1771L81.8765 13.2581L81.861 13.2594L81.8651 13.2495L81.7777 13.2129L81.802 13.1555L81.8891 13.192Z" fill="#09090B"/>
<path d="M82.0418 13.1786L81.9633 13.2211L81.979 13.2503L81.9223 13.2546L81.987 13.1019L82.0639 13.0961L82.0418 13.1786Z" fill="#09090B"/>
<path d="M81.2672 13.1923L81.2608 13.2031C81.2607 13.1976 81.2605 13.1921 81.2603 13.1865L81.2672 13.1923Z" fill="#09090B"/>
<path d="M81.3776 13.1913L81.3665 13.1819L81.3929 13.1193L81.4007 13.1295L81.4234 13.1119L81.3776 13.1913Z" fill="#09090B"/>
<path d="M81.7162 13.1247L81.7256 13.1271L81.7025 13.1813L81.6525 13.1604L81.6628 13.1363L81.6714 13.126L81.7167 13.1224L81.7162 13.1247Z" fill="#09090B"/>
<path d="M81.3762 13.0973L81.3487 13.1621L81.3318 13.1398L81.3649 13.0824L81.3762 13.0973Z" fill="#09090B"/>
<path d="M81.5988 13.1379L81.5344 13.111L81.5429 13.091L81.5988 13.1379Z" fill="#09090B"/>
<path d="M82.2474 13.0576L82.2442 13.0694L82.1783 13.1051L82.1467 13.122L82.1071 13.1051L82.1104 13.0926L82.1147 13.0923L82.1138 13.08L82.1363 12.9954L82.1619 12.9815L82.2474 13.0576Z" fill="#09090B"/>
<path d="M81.3148 13.0166L81.3452 13.0566L81.3121 13.114L81.2856 13.0791L81.3064 13.0301L81.3123 13.0159L81.3148 13.0166Z" fill="#09090B"/>
<path d="M81.4642 13.0816L81.4634 13.0813L81.4647 13.0804L81.4642 13.0816Z" fill="#09090B"/>
<path d="M81.4818 13.04L81.4696 13.0687L81.4586 13.0544L81.4661 13.0268L81.4818 13.04Z" fill="#09090B"/>
<path d="M83.1838 12.9982L83.1801 13.0113L83.0651 12.9804L83.0679 12.9754L83.1838 12.9982Z" fill="#09090B"/>
<path d="M81.752 12.9908L81.7469 13.0094L81.7246 13.011L81.734 12.9758L81.752 12.9908Z" fill="#09090B"/>
<path d="M81.7105 12.956L81.689 13.0065L81.6474 12.989L81.66 12.9421L81.691 12.9397L81.7105 12.956Z" fill="#09090B"/>
<path d="M81.9093 12.9633L81.9002 12.9978L81.863 13.0006H81.8619L81.8468 12.9943L81.8605 12.9429L81.9093 12.9633Z" fill="#09090B"/>
<path d="M81.4126 12.982L81.4189 12.9965L81.4173 13.0002L81.3959 12.9719L81.3967 12.9687L81.4126 12.982Z" fill="#09090B"/>
<path d="M82.0882 12.802L82.1301 12.8264L82.1238 12.8724L82.1006 12.9589L82.0999 12.9593L82.0497 12.9864L81.9833 12.9914L81.9956 12.9463L82.003 12.918L82.0038 12.916L82.1009 12.9086L82.0995 12.8903L82.0987 12.8788L82.0215 12.8846L82.0238 12.868L82.0257 12.8635L82.0245 12.8629L82.0249 12.86L82.0315 12.8658L82.089 12.8004L82.0882 12.802Z" fill="#09090B"/>
<path d="M81.8289 12.9365L81.833 12.9314L81.8435 12.9357L81.8298 12.9869L81.7919 12.9708L81.7876 12.9809L81.8006 12.9314L81.8076 12.9308L81.8093 12.9342L81.8165 12.9302L81.8209 12.9298L81.8289 12.9365Z" fill="#09090B"/>
<path d="M81.6009 12.9695L81.5953 12.9672L81.6121 12.9275L81.6009 12.9695Z" fill="#09090B"/>
<path d="M81.7605 12.9585L81.7426 12.9436L81.7447 12.9356L81.7671 12.934L81.7605 12.9585Z" fill="#09090B"/>
<path d="M81.9194 12.9259L81.9163 12.9373L81.8866 12.9249L81.9202 12.9224L81.9194 12.9259Z" fill="#09090B"/>
<path d="M82.1986 12.7733L82.1983 12.7819L82.2018 12.782L82.1977 12.8042L82.2002 12.8047L82.1858 12.9085L82.1784 12.9168L82.1538 12.9302L82.1954 12.7741H82.1967L82.1966 12.773L82.1986 12.7733Z" fill="#09090B"/>
<path d="M81.4993 12.927L81.4934 12.9246L81.4952 12.9177L81.4993 12.927Z" fill="#09090B"/>
<path d="M81.742 12.8932L81.7385 12.9059L81.7011 12.9088L81.6951 12.9039L81.6992 12.9008L81.6782 12.8732L81.6798 12.8672L81.742 12.8932Z" fill="#09090B"/>
<path d="M81.7672 12.9037L81.7529 12.9048L81.7547 12.8986L81.7672 12.9037Z" fill="#09090B"/>
<path d="M81.9223 12.8921L81.8813 12.8951L81.9024 12.8836L81.9223 12.8921Z" fill="#09090B"/>
<path d="M81.7431 12.8648L81.7351 12.8614L81.7377 12.8603L81.7431 12.8648Z" fill="#09090B"/>
<path d="M81.7161 12.8422L81.7223 12.8474L81.7269 12.8581L81.6973 12.8457L81.713 12.8418L81.7161 12.8422Z" fill="#09090B"/>
<path d="M81.6403 12.8217L81.6385 12.821L81.6406 12.8203L81.6403 12.8217Z" fill="#09090B"/>
<path d="M82.2725 12.7793L82.272 12.7833L82.2719 12.7873L82.266 12.8176L82.2636 12.8202L82.2688 12.7828L82.2706 12.7832L82.2733 12.7647L82.2725 12.7793Z" fill="#09090B"/>
<path d="M81.2959 12.7997L81.2899 12.7891L81.2918 12.7817L81.2959 12.7997Z" fill="#09090B"/>
<path d="M81.3214 12.7795L81.3204 12.7864L81.3217 12.7865H81.3225L81.3257 12.787L81.3276 12.7905L81.3271 12.7924L81.3188 12.7856L81.3171 12.7875L81.3109 12.7612L81.3214 12.7795Z" fill="#09090B"/>
<path d="M87.8661 12.7852L87.7968 12.7795L87.7975 12.7679L87.8021 12.6527L87.8626 12.6526C87.8638 12.6969 87.8648 12.7411 87.8661 12.7852Z" fill="#09090B"/>
<path d="M81.3624 12.7749L81.3622 12.776L81.3611 12.78L81.3535 12.7626L81.3511 12.7573V12.7549L81.3624 12.7749Z" fill="#09090B"/>
<path d="M81.7739 12.7334L81.7742 12.7403L81.7733 12.7404L81.7718 12.7277L81.772 12.7262L81.7739 12.7334Z" fill="#09090B"/>
<path d="M81.8568 12.7341H81.8562L81.8565 12.7285L81.8568 12.7341Z" fill="#09090B"/>
<path d="M81.8614 12.7274L81.8618 12.729L81.8613 12.7337L81.8592 12.727L81.8594 12.7229L81.8614 12.7274Z" fill="#09090B"/>
<path d="M87.1609 12.409V12.4965L86.7197 12.4783L86.7147 12.3438L87.1606 12.3098L87.1609 12.409Z" fill="#09090B"/>
<path d="M82.352 12.1921L82.3712 12.2591L82.369 12.2594L82.3566 12.2245L82.3477 12.187L82.3459 12.1873L82.3297 12.1328L82.3302 12.1315L82.352 12.1921Z" fill="#09090B"/>
<path d="M81.7993 12.2498L81.7998 12.2503L81.7987 12.2506L81.7985 12.2498H81.7993Z" fill="#09090B"/>
<path d="M82.3407 12.2262L82.3427 12.235L82.3373 12.2256L82.3351 12.2111L82.3407 12.2262Z" fill="#09090B"/>
<path d="M81.3153 12.2111L81.3074 12.2248V12.191L81.3153 12.2111Z" fill="#09090B"/>
<path d="M81.7917 12.2079L81.7919 12.2101L81.7912 12.2062L81.7917 12.2079Z" fill="#09090B"/>
<path d="M81.9776 12.1918L81.9758 12.1964L81.9752 12.1966L81.9758 12.1942L81.9776 12.1918Z" fill="#09090B"/>
<path d="M82.3351 12.1886L82.3294 12.173L82.3283 12.1647L82.3351 12.1886Z" fill="#09090B"/>
<path d="M81.946 12.1873L81.9455 12.1877L81.9452 12.1864L81.9458 12.1845L81.9452 12.1843L81.946 12.183V12.1873Z" fill="#09090B"/>
<path d="M81.9655 12.1816L81.9636 12.1864L81.9628 12.1849L81.965 12.1813L81.9655 12.1816Z" fill="#09090B"/>
<path d="M81.946 12.1775L81.9442 12.1803V12.1767L81.946 12.1757V12.1775Z" fill="#09090B"/>
<path d="M81.9468 12.1714L81.9441 12.173H81.9433L81.9423 12.1669L81.9438 12.1661L81.9468 12.1714Z" fill="#09090B"/>
<path d="M81.8432 12.147L81.8424 12.1467L81.8429 12.1462L81.8432 12.147Z" fill="#09090B"/>
<path d="M81.8425 12.1448L81.8413 12.1462L81.8395 12.1454L81.8421 12.1427L81.8425 12.1448Z" fill="#09090B"/>
<path d="M81.8416 12.1411L81.8382 12.1449L81.8373 12.1445L81.8413 12.14L81.8416 12.1411Z" fill="#09090B"/>
<path d="M82.0145 12.1363V12.1409L82.01 12.1416L82.0044 12.1342V12.1285L82.0145 12.1363Z" fill="#09090B"/>
<path d="M82.0499 12.1339V12.1355L82.0381 12.1373L82.0337 12.1204L82.0499 12.1339Z" fill="#09090B"/>
<path d="M81.8365 12.1223L81.833 12.1261L81.8362 12.1209L81.8365 12.1223Z" fill="#09090B"/>
<path d="M82.0145 12.125L82.0138 12.1245L82.0145 12.1244V12.125Z" fill="#09090B"/>
<path d="M81.9555 12.1228L81.9229 12.1091L81.9191 12.1059L81.9447 12.104L81.9555 12.1228Z" fill="#09090B"/>
<path d="M81.3744 12.0968L81.3687 12.1116L81.3307 12.1218L81.3268 12.1148L81.3479 12.0402L81.3504 12.0371L81.3744 12.0968Z" fill="#09090B"/>
<path d="M81.806 12.1193L81.8052 12.1205L81.8019 12.1148L81.806 12.1145V12.1193Z" fill="#09090B"/>
<path d="M81.3821 12.0666V12.0773L81.3814 12.0789L81.3633 12.0341L81.3821 12.0666Z" fill="#09090B"/>
<path d="M81.5152 12.0305L81.4995 12.0482L81.499 12.0469L81.5103 12.018L81.5152 12.0305Z" fill="#09090B"/>
<path d="M81.3921 12.0403H81.3892L81.3728 12.0118L81.3781 12.0059L81.3921 12.0403Z" fill="#09090B"/>
<path d="M82.6272 11.7731L82.5946 11.782L82.6337 11.9289L82.6324 11.9295L82.6362 11.9381L82.6535 12.0035L82.5885 12.0223L82.5935 12.0166L82.5592 11.9879L82.5452 11.9633L82.5167 11.9136L82.4297 11.6974L82.4989 11.7264L82.5317 11.6475L82.6272 11.7731Z" fill="#09090B"/>
<path d="M81.9282 12.0164L81.8856 12.0198L81.8794 11.996L81.9282 12.0164Z" fill="#09090B"/>
<path d="M81.7926 12.0016L81.7723 12.0126L81.7879 11.9951L81.7599 11.9702L81.7795 11.9688L81.7926 12.0016Z" fill="#09090B"/>
<path d="M82.2415 12.0057L82.2388 12.0046L82.2379 12.001L82.2415 12.0057Z" fill="#09090B"/>
<path d="M81.5549 11.9528L81.5395 11.9541L81.5408 11.9721L81.5419 11.9868L81.5546 11.9857L81.5389 12.0037L81.5112 11.9349L81.5201 11.9193L81.5321 11.9129L81.5549 11.9528Z" fill="#09090B"/>
<path d="M83.138 11.9982L83.1242 12.0016L83.1021 11.9247L83.11 11.9201L83.138 11.9982Z" fill="#09090B"/>
<path d="M82.2123 11.9673L82.2237 11.9823L82.2285 12.0003L82.202 11.9892L82.1684 11.9306L82.2123 11.9673Z" fill="#09090B"/>
<path d="M81.5022 11.9979L81.4799 11.9893L81.4909 11.9702L81.5022 11.9979Z" fill="#09090B"/>
<path d="M81.8651 11.978L81.8524 11.9815L81.8473 11.9721L81.8219 11.9857L81.8139 11.9662L81.8719 11.9617L81.8651 11.978Z" fill="#09090B"/>
<path d="M82.1546 11.7798L82.0863 11.8619L82.1376 11.9048L82.1263 11.908L82.1411 11.9636L82.1365 11.9617L82.116 11.9531L82.1055 11.9134L82.1004 11.9149L82.0944 11.9165L82.1026 11.9475L82.0458 11.9236L82.0195 11.8583L81.9862 11.7754L82.0154 11.7733L82.0113 11.7197L82.1546 11.7798Z" fill="#09090B"/>
<path d="M81.4623 11.9557L81.4605 11.9515L81.4664 11.9483L81.4623 11.9557Z" fill="#09090B"/>
<path d="M81.6109 11.9219L81.5888 11.9471L81.5834 11.9439L81.5824 11.9453L81.5659 11.9165L81.5587 11.8986L81.5939 11.8796L81.6109 11.9219Z" fill="#09090B"/>
<path d="M81.7615 11.9241L81.7332 11.9394L81.7257 11.9399L81.72 11.9349L81.7148 11.9408L81.6836 11.9431L81.6757 11.9236L81.7451 11.8836L81.7615 11.9241Z" fill="#09090B"/>
<path d="M81.8912 11.9102L81.8923 11.9129L81.8861 11.9278L81.8028 11.9342L81.8216 11.9241L81.8152 11.9121L81.8081 11.8991L81.7907 11.9083L81.7461 11.7974L81.7518 11.7943L81.7512 11.7932L81.772 11.7918L81.8413 11.7864L81.8912 11.9102Z" fill="#09090B"/>
<path d="M81.745 11.883L81.7076 11.8181L81.7169 11.8131L81.745 11.883Z" fill="#09090B"/>
<path d="M81.2621 11.8583L81.2397 11.8704L81.2357 11.8651C81.2355 11.8473 81.2354 11.8294 81.2352 11.8115L81.2621 11.8583Z" fill="#09090B"/>
<path d="M81.3986 11.8481L81.3908 11.8347L81.3919 11.8329L81.3887 11.831L81.3844 11.8237L81.4524 11.7868L81.3986 11.8481Z" fill="#09090B"/>
<path d="M81.2853 11.834L81.2778 11.8469L81.2425 11.7857L81.2454 11.7809L81.2853 11.834Z" fill="#09090B"/>
<path d="M81.444 11.76L81.3706 11.7996L81.3673 11.7937L81.4254 11.7277L81.444 11.76Z" fill="#09090B"/>
<path d="M82.2649 11.6283L82.3102 11.7404L82.3324 11.7958L82.3267 11.7934L82.2186 11.703L82.2085 11.7149L82.1759 11.6339L82.219 11.6091L82.2649 11.6283Z" fill="#09090B"/>
<path d="M81.4114 11.7034L81.3533 11.7693L81.3193 11.7105L81.3925 11.6708L81.4114 11.7034Z" fill="#09090B"/>
<path d="M81.5247 11.7613L81.5154 11.7529L81.5238 11.7482L81.5247 11.7613Z" fill="#09090B"/>
<path d="M81.5217 11.7022L81.5205 11.7023L81.5216 11.7181L81.4683 11.7468L81.4448 11.706L81.4733 11.7439L81.4849 11.7352L81.5044 11.7203L81.4456 11.6421L81.4774 11.625L81.5217 11.7022Z" fill="#09090B"/>
<path d="M82.1651 11.7256L82.0794 11.6897L82.1371 11.6564L82.1651 11.7256Z" fill="#09090B"/>
<path d="M81.7879 11.6819L81.7639 11.6838L81.6358 11.6934L81.6334 11.6891L81.6816 11.6633L81.6746 11.6502L81.6684 11.6389L81.6196 11.6652L81.6067 11.6429L81.6353 11.6212L81.748 11.6126L81.7879 11.6819Z" fill="#09090B"/>
<path d="M82.0354 11.6714L81.9992 11.6563L81.9949 11.6661L81.9436 11.6701L81.928 11.6312L81.8446 11.6649L81.8119 11.6078L81.9911 11.5942L82.0354 11.6714Z" fill="#09090B"/>
<path d="M82.5576 11.6269L82.5321 11.6465L82.5447 11.6161L82.5576 11.6269Z" fill="#09090B"/>
<path d="M81.3285 11.5595L81.3541 11.604L81.35 11.6062L81.3106 11.5711L81.2673 11.6201L81.2565 11.6012L81.2333 11.6145C81.2333 11.6131 81.2332 11.6118 81.2332 11.6105L81.3326 11.5569L81.3285 11.5595Z" fill="#09090B"/>
<path d="M81.7283 11.5784L81.6878 11.5815L81.7008 11.5717L81.6064 11.4463L81.6503 11.4429L81.7283 11.5784Z" fill="#09090B"/>
<path d="M81.4389 11.558L81.3989 11.5797L81.3676 11.5381L81.4132 11.5134L81.4389 11.558Z" fill="#09090B"/>
<path d="M81.9325 11.4922L81.9714 11.5599L81.7922 11.5735L81.7141 11.438L81.7451 11.4357L81.8395 11.4286L81.8579 11.453L81.8775 11.4381L81.894 11.4255L81.9325 11.4922Z" fill="#09090B"/>
<path d="M81.3158 11.5343L81.2483 11.5708L81.2756 11.54L81.2669 11.5324L81.2576 11.5241L81.2327 11.552C81.2324 11.5156 81.2321 11.4792 81.2319 11.4426L81.2425 11.437L81.3158 11.5343Z" fill="#09090B"/>
<path d="M82.7327 11.3047L82.706 11.3157L82.7667 11.4668L82.6386 11.5649L82.6205 11.5497L82.5638 11.409L82.5808 11.3994L82.6295 11.3712L82.5708 11.2691L82.6717 11.3114L82.6839 11.2817L82.6893 11.2685L82.7327 11.3047Z" fill="#09090B"/>
<path d="M81.4361 11.4652L81.4383 11.4681L81.3506 11.5155L81.2775 11.4182L81.2996 11.4063L81.3544 11.4613L81.3682 11.4475L81.3932 11.4224L81.35 11.379L81.3651 11.3709L81.4361 11.4652Z" fill="#09090B"/>
<path d="M82.1347 11.2436L82.2684 11.1424L82.4235 11.2074L82.5274 11.3881L82.4934 11.4019L82.5185 11.4644L82.4584 11.4142L82.4169 11.4643L82.4052 11.4782L82.1414 11.3677L82.021 11.1582L81.9441 11.2026L81.7901 11.2143L81.782 11.2036L81.6558 11.0356L81.7146 11.0313L81.9581 11.0128L81.9576 11.0078L82.1347 11.2436Z" fill="#09090B"/>
<path d="M81.7642 11.3283L81.5311 11.346L81.5044 11.3106L81.5403 11.2746L81.714 11.2615L81.7642 11.3283Z" fill="#09090B"/>
<path d="M81.233 11.3394L81.2316 11.3402C81.2316 11.3395 81.2316 11.3388 81.2316 11.338L81.233 11.3394Z" fill="#09090B"/>
<path d="M83.2689 11.2636L83.1734 11.3186L83.2451 11.2323L83.2689 11.2636Z" fill="#09090B"/>
<path d="M81.3755 11.2042L81.2893 11.2698L81.3102 11.2978L81.2835 11.3123L81.239 11.2677L81.3689 11.1975L81.3755 11.2042Z" fill="#09090B"/>
<path d="M81.8306 11.2683L81.8195 11.2535L81.8618 11.2503L81.8306 11.2683Z" fill="#09090B"/>
<path d="M81.3476 11.1762L81.2313 11.2388C81.2312 11.2227 81.2312 11.2065 81.2311 11.1904L81.2406 11.1979L81.2556 11.1786L81.2853 11.1405L81.2416 11.1062L81.2653 11.0936L81.3476 11.1762Z" fill="#09090B"/>
<path d="M81.5837 11.047L81.564 11.0619L81.6846 11.2224L81.5848 11.2299L81.643 11.1717L81.5178 11.0461L81.5923 11.0403L81.5837 11.047Z" fill="#09090B"/>
<path d="M82.7265 11.0872L82.7281 11.0898L82.6246 11.2143L82.5123 11.1673L82.4284 11.0214L82.4435 11.01L82.3979 10.9495L82.7265 11.0872Z" fill="#09090B"/>
<path d="M87.3247 10.6527L85.6058 11.1497L87.2432 10.4255L87.3247 10.6527Z" fill="#09090B"/>
<path d="M82.3648 11.1055L82.3342 11.0926L82.3504 11.0804L82.3648 11.1055Z" fill="#09090B"/>
<path d="M81.4672 10.9954L81.4283 10.9565L81.461 10.9144L81.4672 10.9954Z" fill="#09090B"/>
<path d="M78.2609 10.8525C78.2537 10.8713 78.2465 10.8901 78.2393 10.9088L78.1005 10.8001L78.1417 10.6937L78.2609 10.8525Z" fill="#09090B"/>
<path d="M81.7583 10.8862L81.4658 10.9083L81.5441 10.8077L81.6706 10.7982L81.7583 10.8862Z" fill="#09090B"/>
<path d="M81.2534 10.8697L81.2303 10.8927C81.2303 10.8791 81.2304 10.8655 81.2305 10.8519L81.2534 10.8697Z" fill="#09090B"/>
<path d="M81.8947 10.8117L81.8665 10.7833L81.9393 10.7779L81.8947 10.8117Z" fill="#09090B"/>
<path d="M81.6272 10.3033L81.7338 10.3868L81.6665 10.3921L81.4232 10.4106L81.4346 10.5628L81.5694 10.5525L81.5225 10.5996L81.4976 10.6248L81.625 10.7526L81.5783 10.7561L81.2866 10.5274L81.4149 10.3042L81.4154 10.309L81.6152 10.2937L81.6272 10.3033Z" fill="#09090B"/>
<path d="M78.4415 10.3138L78.415 10.3339L78.4565 10.2616C78.4515 10.279 78.4466 10.2964 78.4415 10.3138Z" fill="#09090B"/>
<path d="M81.5403 10.2352L81.4509 10.2419L81.4814 10.1889L81.5403 10.2352Z" fill="#09090B"/>
<path d="M87.852 9.75702C87.8478 9.87184 87.8444 9.98918 87.8419 10.1091L87.8345 10.1119L87.7048 9.81681L87.852 9.75702Z" fill="#09090B"/>
<path d="M81.3223 9.07239L81.5657 9.05389L81.5708 9.05341L81.3523 9.43351L81.3992 9.46062L81.3898 9.46126L81.3906 9.45982L81.2826 9.41374C81.2926 9.27472 81.304 9.13738 81.3169 9.00175L81.3223 9.07239Z" fill="#09090B"/>
<path d="M87.8787 9.21795L87.6042 9.32924L87.8818 9.16916C87.8808 9.18537 87.8797 9.20163 87.8787 9.21795Z" fill="#09090B"/>
<path d="M78.2231 9.28954L78.0696 9.02264L78.0716 9.02057L78.1013 8.98677L78.2231 9.28954Z" fill="#09090B"/>
</svg>
